<svg xmlns="http://www.w3.org/2000/svg" width="164" height="120" fill="none" viewBox="0 0 164 120"><path fill="#1e1e20" d="M135.926 101.093C134.446 100.177 132.965 100.061 131.714 100.061H127.384V119.658H130.459V111.751H131.714C133.193 111.751 135.015 111.522 136.497 110.148 137.521 109.345 138.432 107.856 138.432 105.907 138.432 104.418 137.864 102.354 135.926 101.093ZM131.714 108.886H130.459V102.811H131.714C132.738 102.811 135.357 102.928 135.357 105.792 135.357 108.541 133.079 108.886 131.714 108.886ZM36.615 101.093C35.134 100.177 33.653 100.061 32.4 100.061H28.072V119.658H31.147V111.751H32.4C33.881 111.751 35.702 111.522 37.183 110.148 38.208 109.345 39.12 107.856 39.12 105.907 39.12 104.418 38.551 102.354 36.615 101.093ZM32.4 108.886H31.147V102.811H32.4C33.424 102.811 36.045 102.928 36.045 105.792 36.045 108.541 33.768 108.886 32.4 108.886ZM89.915 119.658H92.989V102.811H101.059V100.061H89.915V119.658ZM47.206 102.24C44.814 104.531 44.017 107.396 44.017 109.919 44.017 113.127 45.269 115.532 47.206 117.366 49.711 119.771 52.446 120 54.152 120 56.999 120 58.822 118.97 59.391 118.513V114.962C57.228 117.021 55.064 117.252 54.152 117.252 50.053 117.252 47.206 114.158 47.206 109.919 47.206 105.563 49.94 102.467 54.152 102.467 55.292 102.467 57.341 102.583 59.391 104.647V101.093C58.253 100.292 56.772 99.604 54.266 99.604 51.533 99.604 49.257 100.292 47.206 102.24ZM74.71 99.833 69.015 109.687 63.208 119.543H66.628L68.104 116.909 69.584 114.158H79.835L81.43 116.909 82.889 119.543H86.213L80.518 109.687 74.71 99.833ZM71.179 111.635 71.407 111.178 74.71 105.448 78.012 111.178 78.354 111.635H71.179ZM107.454 119.658H119.185V116.909H110.415V110.377H118.958V107.511H110.415V102.811H119.185V100.061H107.454V119.658ZM157.507 109.687 151.701 99.833 146.006 109.687 140.198 119.543H143.618L145.095 116.909 146.574 114.158H156.826L158.42 116.909 159.878 119.543H163.204L157.507 109.687ZM148.171 111.635 148.398 111.178 151.702 105.448 155.005 111.178 155.344 111.635H148.171ZM12.469 99.833 6.775 109.687.967 119.543H4.387L5.863 116.909 7.344 114.158H17.595L19.19 116.909 20.648 119.543H23.972L18.278 109.687 12.469 99.833ZM8.939 111.635 9.167 111.178 12.469 105.448 15.772 111.178 16.114 111.635H8.939ZM25.035 86.389 23.816 83.963H22.951L24.63 87.244 24.003 88.641H24.742L26.839 83.963H26.101L25.035 86.389ZM116.667 88.641V83.963H113.253V88.641H113.964V84.636H115.957V88.641H116.667ZM93.568 83.963V88.641H94.279V86.705L94.417 86.563 96.076 88.641H97.026L94.913 86.082 97.01 83.963H96.076L94.279 85.829V83.963H93.568ZM29.659 84.636H31.654V88.641H32.363V83.963H28.95V88.641H29.659V84.636ZM76.661 89.689V87.968H76.062V83.963H75.351V87.968H73.706V83.963H72.996V87.968H71.351V83.963H70.64V88.641H75.992V89.689H76.661ZM39.13 88.641H39.896L40.405 87.51H42.392L42.88 88.641H43.646L41.444 83.689 39.13 88.641ZM40.699 86.84 41.416 85.254 42.105 86.84H40.699ZM128.068 88.641H128.778V83.963H128.068V85.787H126.075V83.963H125.364V88.641H126.075V86.458H128.068V88.641ZM48.026 85.685C48.075 85.528 48.098 85.388 48.094 85.267 48.085 84.965 48.022 84.731 47.908 84.565 47.791 84.398 47.674 84.279 47.558 84.209 47.44 84.122 47.297 84.06 47.132 84.02 46.965 83.982 46.736 83.961 46.442 83.963H45.739V88.641H46.805C47.04 88.645 47.26 88.629 47.46 88.594 47.66 88.556 47.857 88.461 48.046 88.31 48.257 88.123 48.391 87.922 48.443 87.709 48.497 87.499 48.52 87.331 48.512 87.21 48.512 86.964 48.443 86.747 48.307 86.549 48.171 86.351 47.969 86.209 47.705 86.124 47.867 85.985 47.974 85.84 48.026 85.685ZM46.449 84.636H46.694C46.791 84.632 46.895 84.645 47.008 84.674 47.121 84.704 47.217 84.768 47.299 84.859 47.38 84.953 47.422 85.097 47.427 85.288 47.42 85.511 47.367 85.672 47.267 85.77 47.166 85.866 47.055 85.927 46.938 85.95L46.666 85.975H46.449V84.636ZM47.817 87.273C47.826 87.431 47.769 87.583 47.645 87.73 47.521 87.877 47.265 87.957 46.882 87.968H46.449V86.563H46.896C47.263 86.573 47.511 86.648 47.638 86.794 47.765 86.94 47.825 87.099 47.817 87.273ZM79.048 88.641 79.559 87.51H81.545L82.032 88.641H82.798L80.596 83.689 78.282 88.641H79.048ZM80.568 85.254 81.258 86.84H79.851L80.568 85.254ZM140.46 88.641V83.963H139.318C139.147 83.956 138.946 83.973 138.716 84.02 138.484 84.067 138.265 84.196 138.056 84.406 137.923 84.553 137.831 84.71 137.777 84.872 137.724 85.038 137.7 85.205 137.701 85.378 137.698 85.553 137.723 85.727 137.777 85.898 137.833 86.071 137.938 86.229 138.098 86.375 138.202 86.464 138.317 86.534 138.443 86.589 138.572 86.641 138.696 86.677 138.817 86.69L137.436 88.641H138.315L139.583 86.768H139.751V88.641H140.46V88.641ZM139.36 86.11C139.248 86.11 139.125 86.099 138.994 86.072 138.862 86.046 138.746 86.002 138.648 85.94 138.589 85.902 138.53 85.84 138.474 85.75 138.417 85.66 138.386 85.537 138.385 85.378 138.385 85.264 138.406 85.158 138.449 85.069 138.491 84.974 138.541 84.899 138.606 84.839 138.7 84.749 138.815 84.691 138.946 84.663 139.079 84.632 139.231 84.619 139.403 84.621H139.752V86.111H139.36V86.11ZM85.754 84.02C85.523 84.067 85.303 84.196 85.094 84.405 84.96 84.553 84.867 84.71 84.815 84.872 84.761 85.038 84.735 85.204 84.739 85.378 84.734 85.552 84.761 85.727 84.815 85.898 84.87 86.071 84.977 86.229 85.137 86.375 85.241 86.463 85.353 86.533 85.481 86.589 85.608 86.641 85.733 86.677 85.854 86.69L84.474 88.641H85.351L86.621 86.767H86.788V88.641H87.499V83.963H86.356C86.184 83.955 85.984 83.973 85.754 84.02ZM86.787 84.621V86.11H86.399C86.286 86.11 86.162 86.099 86.032 86.072 85.899 86.046 85.785 86.002 85.686 85.94 85.627 85.902 85.568 85.84 85.512 85.75 85.455 85.66 85.426 85.537 85.421 85.378 85.423 85.264 85.443 85.157 85.486 85.069 85.526 84.974 85.579 84.899 85.645 84.838 85.738 84.749 85.851 84.691 85.984 84.663 86.117 84.632 86.267 84.619 86.439 84.621H86.787V84.621ZM35.691 86.739H36.012C36.186 86.744 36.372 86.722 36.57 86.677 36.768 86.628 36.961 86.529 37.148 86.375 37.336 86.205 37.458 86.029 37.518 85.841 37.58 85.657 37.606 85.491 37.602 85.352 37.602 85.133 37.553 84.923 37.457 84.721 37.363 84.517 37.218 84.351 37.024 84.215 36.852 84.106 36.676 84.036 36.495 84.006 36.315 83.972 36.152 83.961 36.005 83.963H34.981V88.641H35.691V86.739H35.691ZM35.691 84.621H36.006C36.271 84.626 36.469 84.67 36.601 84.751 36.733 84.834 36.821 84.93 36.862 85.042 36.904 85.154 36.922 85.254 36.918 85.344 36.918 85.566 36.845 85.743 36.695 85.875 36.547 86.009 36.319 86.078 36.012 86.082H35.691V84.621ZM102.427 84.203C102.066 83.991 101.65 83.884 101.182 83.878 100.711 83.884 100.297 83.991 99.935 84.203 99.574 84.413 99.288 84.7 99.08 85.065 98.873 85.429 98.768 85.842 98.763 86.305 98.768 86.767 98.873 87.18 99.08 87.544 99.288 87.907 99.574 88.195 99.935 88.408 100.297 88.62 100.711 88.726 101.182 88.731 101.65 88.726 102.066 88.62 102.427 88.408 102.791 88.195 103.074 87.907 103.283 87.544 103.489 87.18 103.597 86.767 103.599 86.305 103.597 85.842 103.489 85.429 103.283 85.065 103.074 84.7 102.791 84.413 102.427 84.203ZM102.41 87.577C102.098 87.898 101.689 88.064 101.182 88.072 100.673 88.064 100.266 87.898 99.954 87.577 99.642 87.257 99.483 86.832 99.472 86.304 99.483 85.777 99.642 85.354 99.954 85.032 100.266 84.709 100.673 84.547 101.182 84.537 101.689 84.547 102.098 84.709 102.41 85.032 102.72 85.354 102.881 85.777 102.889 86.304 102.881 86.832 102.72 87.257 102.41 87.577ZM109.584 85.821 110.059 88.641H110.783L109.905 83.614 108.273 87.244 106.657 83.614 105.68 88.641H106.404L106.893 85.815 108.231 88.856 109.584 85.821ZM118.756 88.641H119.521L120.03 87.51H122.018L122.504 88.641H123.272L121.069 83.689 118.756 88.641ZM120.324 86.84 121.041 85.254 121.732 86.84H120.324ZM63.737 87.307C63.832 87.548 63.946 87.748 64.078 87.911 64.229 88.112 64.453 88.295 64.75 88.463 65.047 88.631 65.429 88.721 65.897 88.732 66.352 88.726 66.756 88.62 67.107 88.408 67.46 88.195 67.735 87.908 67.937 87.545 68.139 87.18 68.242 86.768 68.245 86.305 68.242 85.84 68.14 85.427 67.939 85.063 67.738 84.699 67.463 84.411 67.111 84.201 66.759 83.991 66.354 83.884 65.897 83.878 65.5 83.886 65.162 83.956 64.882 84.088 64.602 84.224 64.372 84.384 64.197 84.573 64.07 84.698 63.948 84.865 63.832 85.071 63.714 85.277 63.631 85.528 63.577 85.821H62.879V83.963H62.169V88.641H62.879V86.494H63.577C63.588 86.796 63.641 87.068 63.737 87.307ZM64.718 85.035C65.015 84.712 65.409 84.547 65.897 84.537 66.386 84.547 66.78 84.712 67.077 85.035 67.374 85.356 67.526 85.781 67.535 86.305 67.526 86.83 67.374 87.251 67.077 87.574 66.78 87.898 66.386 88.062 65.897 88.072 65.408 88.062 65.015 87.898 64.718 87.574 64.42 87.251 64.267 86.83 64.259 86.305 64.267 85.781 64.42 85.356 64.718 85.035ZM134.534 88.641H135.244V83.767L132.107 87.125V83.963H131.398V88.849L134.534 85.492V88.641ZM54.32 88.641V83.963H51.353V86.755C51.357 86.964 51.349 87.169 51.327 87.375 51.304 87.577 51.236 87.74 51.122 87.862 51.077 87.908 51.018 87.947 50.947 87.976 50.877 88.008 50.797 88.021 50.704 88.023L50.564 88.01 50.446 87.981V88.641L50.586 88.667 50.761 88.681C50.908 88.682 51.056 88.659 51.203 88.614 51.349 88.571 51.483 88.499 51.603 88.401 51.815 88.214 51.944 87.997 51.997 87.745 52.047 87.494 52.07 87.235 52.063 86.964V84.636H53.61V88.641H54.32ZM57.801 84.02C57.57 84.067 57.35 84.196 57.141 84.405 57.007 84.553 56.913 84.71 56.861 84.872 56.808 85.038 56.784 85.204 56.785 85.378 56.782 85.552 56.806 85.727 56.861 85.898 56.915 86.071 57.023 86.229 57.182 86.375 57.286 86.463 57.399 86.533 57.527 86.589 57.655 86.641 57.779 86.677 57.899 86.69L56.521 88.641H57.398L58.668 86.767H58.835V88.641H59.544V83.963H58.402C58.231 83.955 58.031 83.973 57.801 84.02ZM58.835 84.621V86.11H58.444C58.331 86.11 58.21 86.099 58.078 86.072 57.947 86.046 57.832 86.002 57.732 85.94 57.673 85.902 57.616 85.84 57.559 85.75 57.502 85.66 57.471 85.537 57.467 85.378 57.469 85.264 57.491 85.157 57.532 85.069 57.574 84.974 57.627 84.899 57.691 84.838 57.785 84.749 57.898 84.691 58.031 84.663 58.164 84.632 58.316 84.619 58.487 84.621H58.835V84.621Z"/><path fill="#f86401" d="M107.515 39.784 104.421 41.527 111.227 53.481 89.324 40.78 89.447 15.506 96.252 27.334 99.47 25.466 84.992.567V43.395L121.867 64.811 107.515 39.784ZM74.845 68.42V64.684H61.109L83.036 51.985 104.792 64.684H91.055V68.42H119.89L83.036 46.882 46.135 68.42H74.845ZM80.907.441 66.552 25.466 69.647 27.333 76.577 15.506V40.78L54.673 53.48 61.48 41.527 58.386 39.784 44.031 64.811 80.907 43.395V.441Z"/></svg>