<svg xmlns="http://www.w3.org/2000/svg" width="191" height="78" fill="none" viewBox="0 0 191 78"><path fill="#f86401" d="M59.5596 68.3072C61.1996 67.0072 62.6696 65.7372 63.9696 64.4972C64.5296 63.9772 65.0696 63.4372 65.5896 62.8772C66.1296 62.3172 66.6096 61.7672 67.0296 61.2272C67.4496 60.6872 67.7796 60.1772 68.0196 59.6972C68.2796 59.1972 68.4096 58.7472 68.4096 58.3472C68.4096 57.7072 68.1996 57.1872 67.7796 56.7872C67.3796 56.3672 66.5796 56.1572 65.3796 56.1572C64.7596 56.1572 64.1596 56.2072 63.5796 56.3072C62.9996 56.4072 62.4796 56.5072 62.0196 56.6072C61.4796 56.7472 60.9596 56.8972 60.4596 57.0572L59.7396 55.1372C60.2596 54.9372 60.8496 54.7572 61.5096 54.5972C62.0496 54.4572 62.6796 54.3372 63.3996 54.2372C64.1396 54.1172 64.9196 54.0572 65.7396 54.0572C66.3996 54.0572 67.0396 54.1272 67.6596 54.2672C68.2996 54.3872 68.8596 54.6072 69.3396 54.9272C69.8396 55.2272 70.2296 55.6372 70.5096 56.1572C70.8096 56.6772 70.9596 57.3372 70.9596 58.1372C70.9596 58.5972 70.8596 59.0872 70.6596 59.6072C70.4596 60.1072 70.1996 60.6172 69.8796 61.1372C69.5796 61.6372 69.2196 62.1472 68.7996 62.6672C68.3996 63.1672 67.9896 63.6472 67.5696 64.1072C66.5896 65.1872 65.4696 66.2572 64.2096 67.3172C64.6896 67.2972 65.1896 67.2772 65.7096 67.2572C66.1696 67.2372 66.6896 67.2272 67.2696 67.2272C67.8696 67.2072 68.4896 67.1972 69.1296 67.1972H71.4096V69.4472H59.5596V68.3072ZM76.8794 61.9472C76.8794 62.6672 76.9894 63.3672 77.2094 64.0472C77.4294 64.7072 77.7594 65.2872 78.1994 65.7872C78.6394 66.2872 79.1694 66.6872 79.7894 66.9872C80.4094 67.2872 81.1294 67.4372 81.9494 67.4372C82.7494 67.4372 83.4594 67.2872 84.0794 66.9872C84.6994 66.6872 85.2194 66.2872 85.6394 65.7872C86.0794 65.2872 86.4094 64.7072 86.6294 64.0472C86.8494 63.3672 86.9594 62.6672 86.9594 61.9472C86.9594 61.2072 86.8494 60.5072 86.6294 59.8472C86.4094 59.1672 86.0794 58.5772 85.6394 58.0772C85.2194 57.5772 84.6994 57.1872 84.0794 56.9072C83.4594 56.6072 82.7494 56.4572 81.9494 56.4572C81.1294 56.4572 80.4094 56.6072 79.7894 56.9072C79.1694 57.1872 78.6394 57.5772 78.1994 58.0772C77.7594 58.5772 77.4294 59.1672 77.2094 59.8472C76.9894 60.5072 76.8794 61.2072 76.8794 61.9472ZM74.3294 61.9472C74.3294 60.8472 74.5194 59.8172 74.8994 58.8572C75.2794 57.8972 75.8094 57.0672 76.4894 56.3672C77.1694 55.6472 77.9694 55.0872 78.8894 54.6872C79.8294 54.2672 80.8494 54.0572 81.9494 54.0572C83.0294 54.0572 84.0294 54.2672 84.9494 54.6872C85.8894 55.0872 86.6894 55.6472 87.3494 56.3672C88.0294 57.0672 88.5594 57.8972 88.9394 58.8572C89.3194 59.8172 89.5094 60.8472 89.5094 61.9472C89.5094 63.0272 89.3194 64.0472 88.9394 65.0072C88.5594 65.9672 88.0294 66.8072 87.3494 67.5272C86.6894 68.2472 85.8894 68.8172 84.9494 69.2372C84.0294 69.6372 83.0294 69.8372 81.9494 69.8372C80.8494 69.8372 79.8294 69.6372 78.8894 69.2372C77.9694 68.8172 77.1694 68.2472 76.4894 67.5272C75.8094 66.8072 75.2794 65.9672 74.8994 65.0072C74.5194 64.0472 74.3294 63.0272 74.3294 61.9472ZM94.9849 61.9472C94.9849 62.6672 95.0949 63.3672 95.3149 64.0472C95.5349 64.7072 95.8649 65.2872 96.3049 65.7872C96.7449 66.2872 97.2749 66.6872 97.8949 66.9872C98.5149 67.2872 99.2349 67.4372 100.055 67.4372C100.855 67.4372 101.565 67.2872 102.185 66.9872C102.805 66.6872 103.325 66.2872 103.745 65.7872C104.185 65.2872 104.515 64.7072 104.735 64.0472C104.955 63.3672 105.065 62.6672 105.065 61.9472C105.065 61.2072 104.955 60.5072 104.735 59.8472C104.515 59.1672 104.185 58.5772 103.745 58.0772C103.325 57.5772 102.805 57.1872 102.185 56.9072C101.565 56.6072 100.855 56.4572 100.055 56.4572C99.2349 56.4572 98.5149 56.6072 97.8949 56.9072C97.2749 57.1872 96.7449 57.5772 96.3049 58.0772C95.8649 58.5772 95.5349 59.1672 95.3149 59.8472C95.0949 60.5072 94.9849 61.2072 94.9849 61.9472ZM92.4349 61.9472C92.4349 60.8472 92.6249 59.8172 93.0049 58.8572C93.3849 57.8972 93.9149 57.0672 94.5949 56.3672C95.2749 55.6472 96.0749 55.0872 96.9949 54.6872C97.9349 54.2672 98.9549 54.0572 100.055 54.0572C101.135 54.0572 102.135 54.2672 103.055 54.6872C103.995 55.0872 104.795 55.6472 105.455 56.3672C106.135 57.0672 106.665 57.8972 107.045 58.8572C107.425 59.8172 107.615 60.8472 107.615 61.9472C107.615 63.0272 107.425 64.0472 107.045 65.0072C106.665 65.9672 106.135 66.8072 105.455 67.5272C104.795 68.2472 103.995 68.8172 103.055 69.2372C102.135 69.6372 101.135 69.8372 100.055 69.8372C98.9549 69.8372 97.9349 69.6372 96.9949 69.2372C96.0749 68.8172 95.2749 68.2472 94.5949 67.5272C93.9149 66.8072 93.3849 65.9672 93.0049 65.0072C92.6249 64.0472 92.4349 63.0272 92.4349 61.9472ZM112.61 67.4672C113.31 67.4472 114.02 67.4272 114.74 67.4072C115.36 67.3872 116.03 67.3772 116.75 67.3772C117.47 67.3572 118.17 67.3472 118.85 67.3472H120.71V64.1972C120.71 63.1172 120.71 62.1572 120.71 61.3172C120.73 60.4772 120.75 59.7672 120.77 59.1872C120.79 58.5072 120.82 57.9072 120.86 57.3872L112.61 67.4672ZM109.55 67.8272L120.71 54.3572H123.11V67.3472H125.21V69.4472H123.11V75.2972H120.71V69.4472H109.7L109.55 67.8272Z"/><path fill="#666" d="M132.908 54.811V55.905H129.368V62.447H128.195V54.811H132.908ZM137.326 62.606C136.637 62.606 136.032 62.442 135.512 62.114 134.995 61.786 134.59 61.327 134.299 60.737 134.01 60.147 133.866 59.458 133.866 58.669 133.866 57.873 134.01 57.179 134.299 56.586 134.59 55.992 134.995 55.532 135.512 55.204 136.032 54.876 136.637 54.711 137.326 54.711 138.016 54.711 138.619 54.876 139.136 55.204 139.656 55.532 140.061 55.992 140.349 56.586 140.641 57.179 140.787 57.873 140.787 58.669 140.787 59.458 140.641 60.147 140.349 60.737 140.061 61.327 139.656 61.786 139.136 62.114 138.619 62.442 138.016 62.606 137.326 62.606ZM137.326 61.552C137.85 61.552 138.281 61.418 138.619 61.15 138.957 60.881 139.207 60.528 139.37 60.091 139.532 59.653 139.613 59.179 139.613 58.669 139.613 58.158 139.532 57.683 139.37 57.242 139.207 56.801 138.957 56.445 138.619 56.173 138.281 55.901 137.85 55.765 137.326 55.765 136.803 55.765 136.372 55.901 136.034 56.173 135.696 56.445 135.445 56.801 135.283 57.242 135.121 57.683 135.039 58.158 135.039 58.669 135.039 59.179 135.121 59.653 135.283 60.091 135.445 60.528 135.696 60.881 136.034 61.15 136.372 61.418 136.803 61.552 137.326 61.552ZM141.762 64.635V61.354H142.399C142.554 61.191 142.689 61.015 142.801 60.827 142.914 60.638 143.012 60.414 143.095 60.155 143.181 59.894 143.254 59.575 143.313 59.201 143.373 58.823 143.426 58.367 143.472 57.834L143.731 54.811H148.583V61.354H149.757V64.635H148.583V62.447H142.936V64.635H141.762ZM143.731 61.354H147.41V55.905H144.825L144.626 57.834C144.543 58.632 144.44 59.33 144.318 59.927 144.195 60.523 143.999 60.999 143.731 61.354ZM153.561 62.626C153.077 62.626 152.638 62.535 152.244 62.353 151.849 62.167 151.536 61.9 151.304 61.552 151.072 61.201 150.956 60.777 150.956 60.28 150.956 59.842 151.042 59.488 151.214 59.216 151.387 58.941 151.617 58.725 151.906 58.569 152.194 58.414 152.512 58.298 152.86 58.221 153.211 58.142 153.564 58.079 153.919 58.032 154.383 57.973 154.759 57.928 155.048 57.898 155.339 57.865 155.551 57.81 155.684 57.734 155.82 57.658 155.888 57.525 155.888 57.336V57.297C155.888 56.806 155.754 56.425 155.485 56.153 155.22 55.881 154.817 55.746 154.277 55.746 153.717 55.746 153.278 55.868 152.96 56.113 152.641 56.359 152.418 56.621 152.288 56.899L151.175 56.501C151.374 56.037 151.639 55.676 151.97 55.417 152.305 55.156 152.67 54.973 153.064 54.871 153.462 54.764 153.853 54.711 154.237 54.711 154.482 54.711 154.764 54.741 155.082 54.801 155.404 54.857 155.714 54.975 156.012 55.154 156.314 55.333 156.564 55.603 156.763 55.964 156.962 56.326 157.061 56.809 157.061 57.416V62.447H155.888V61.413H155.828C155.749 61.579 155.616 61.756 155.43 61.945 155.245 62.134 154.998 62.295 154.69 62.427 154.381 62.56 154.005 62.626 153.561 62.626ZM153.74 61.572C154.204 61.572 154.595 61.481 154.913 61.299 155.235 61.117 155.477 60.881 155.639 60.593 155.805 60.304 155.888 60.001 155.888 59.683V58.609C155.838 58.669 155.729 58.724 155.56 58.773 155.394 58.82 155.202 58.861 154.983 58.898 154.768 58.931 154.557 58.961 154.352 58.987 154.149 59.01 153.985 59.03 153.859 59.047 153.554 59.086 153.269 59.151 153.004 59.241 152.742 59.327 152.53 59.458 152.368 59.633 152.209 59.806 152.129 60.041 152.129 60.339 152.129 60.747 152.28 61.055 152.582 61.264 152.887 61.47 153.273 61.572 153.74 61.572ZM51.264 62.606C50.548 62.606 49.932 62.437 49.415 62.099 48.898 61.761 48.5 61.296 48.222 60.702 47.943 60.109 47.804 59.431 47.804 58.669 47.804 57.893 47.947 57.209 48.232 56.616 48.52 56.019 48.921 55.553 49.435 55.219 49.952 54.88 50.555 54.711 51.244 54.711 51.781 54.711 52.265 54.811 52.696 55.01 53.127 55.209 53.48 55.487 53.755 55.845 54.03 56.203 54.201 56.621 54.267 57.098H53.094C53.004 56.75 52.806 56.442 52.497 56.173 52.192 55.901 51.781 55.765 51.264 55.765 50.807 55.765 50.406 55.885 50.061 56.123 49.72 56.359 49.453 56.692 49.261 57.123 49.072 57.55 48.977 58.052 48.977 58.629 48.977 59.219 49.07 59.733 49.256 60.17 49.445 60.608 49.71 60.947 50.051 61.189 50.396 61.431 50.8 61.552 51.264 61.552 51.569 61.552 51.846 61.499 52.095 61.393 52.343 61.287 52.554 61.135 52.726 60.936 52.898 60.737 53.021 60.498 53.094 60.22H54.267C54.201 60.671 54.037 61.077 53.775 61.438 53.516 61.796 53.173 62.081 52.746 62.293 52.322 62.502 51.828 62.606 51.264 62.606Z"/><path stroke="#f86401" stroke-width="2" d="M125.121 68.4472L158.129 68.4472"/><path fill="#f86401" d="M13.562 26.189C13.557 27.301 12.886 28.487 11.545 29.745 10.553 30.68 9.495 31.431 8.372 32 9.048 31.926 9.65 32.082 10.176 32.469 10.784 32.927 11.087 33.577 11.085 34.419 11.079 35.992 10.34 37.399 8.869 38.64 7.463 39.827 5.829 40.522 3.965 40.726 2.86 40.848 1.986 40.697 1.345 40.274.654 39.81.311 39.062.314 38.028.316 37.52.457 37.123.738 36.838.954 36.624 1.227 36.499 1.556 36.463 1.82 36.433 2.043 36.488 2.223 36.627 2.404 36.767 2.494 36.986 2.493 37.289 2.492 37.734 2.77 38.053 3.33 38.246 3.775 38.403 4.253 38.455 4.764 38.399 5.886 38.276 6.893 37.872 7.785 37.186 8.86 36.37 9.399 35.373 9.404 34.198 9.405 33.689 9.275 33.37 9.011 33.24 8.748 33.11 8.361 33.073 7.849 33.129 7.684 33.147 7.52 33.169 7.354 33.195 7.189 33.221 7.025 33.243 6.86 33.262 6.2 33.334 5.871 33.108 5.873 32.583 5.874 32.361 5.99 32.134 6.222 31.902 6.453 31.67 6.792 31.482 7.237 31.337 8.261 30.987 9.236 30.301 10.162 29.278 11.089 28.255 11.555 27.379 11.557 26.648 11.559 26.044 11.197 25.782 10.471 25.861 9.728 25.943 8.936 26.268 8.094 26.837 7.333 27.349 6.704 27.926 6.208 28.568 5.976 28.864 5.748 29.15 5.524 29.43 5.301 29.708 5.123 29.855 4.991 29.868 4.596 29.912 4.399 29.696 4.4 29.219 4.402 28.567 5.098 27.578 6.488 26.25 8.076 24.742 9.604 23.908 11.073 23.747 11.93 23.653 12.572 23.853 13 24.346 13.377 24.78 13.564 25.394 13.562 26.189ZM23.99 36.151C23.988 36.437 23.426 36.963 22.302 37.73 21.178 38.496 20.32 38.912 19.726 38.977 18.967 39.06 18.456 38.934 18.193 38.597 17.964 38.098 17.767 37.698 17.604 37.398 17.057 37.934 16.602 38.349 16.239 38.643 15.545 39.196 14.702 39.526 13.713 39.635 13.086 39.704 12.675 39.646 12.477 39.46 12.28 39.275 12.182 38.945 12.184 38.468 12.186 37.563 12.809 36.509 14.05 35.309 15.29 34.109 16.463 33.449 17.568 33.328 18.26 33.252 18.78 33.377 19.125 33.706 19.471 34.033 19.674 34.503 19.738 35.116 19.754 35.209 19.753 35.391 19.736 35.664 19.719 35.935 19.71 36.151 19.71 36.31 19.708 36.628 19.749 36.87 19.831 37.035 19.913 37.201 20.077 37.27 20.324 37.243 20.654 37.207 21.104 37.039 21.674 36.738 22.244 36.437 22.834 36.119 23.445 35.782 23.809 35.742 23.99 35.865 23.99 36.151ZM17.164 35.73C17.166 35.477 17.017 35.365 16.72 35.398 16.325 35.441 15.879 35.705 15.382 36.188 14.886 36.671 14.637 37.072 14.635 37.389 14.651 37.531 14.858 37.58 15.253 37.537 15.55 37.504 15.943 37.27 16.43 36.836 16.919 36.401 17.163 36.033 17.164 35.73Z"/><path fill="#f86401" d="M34.6716 22.1854C34.6702 22.503 34.5741 22.8036 34.3838 23.0865C34.1936 23.3695 33.9776 23.552 33.7386 23.6341C33.4989 23.7156 33.0296 23.8269 32.3281 23.9673C31.6267 24.1078 31.1439 24.1926 30.8805 24.2218C30.6983 24.2415 30.4018 24.2421 29.9901 24.2238C29.5784 24.2055 29.3137 24.2028 29.1986 24.215C29.0333 24.2333 28.8559 24.3439 28.6657 24.5475C28.4754 24.7511 28.3799 24.9323 28.3793 25.091C28.3786 25.3611 28.4023 25.716 28.4497 26.155C28.4971 26.5948 28.5621 27.1118 28.6427 27.7069C28.9968 29.875 29.1728 31.7784 29.1667 33.4158C29.1491 33.6397 29.1119 33.9023 29.0523 34.2022C28.9941 34.5021 28.9311 34.7118 28.8647 34.8306C29.592 34.5123 30.2034 34.1995 30.699 33.8908C30.8805 33.7598 31.0748 33.6275 31.2807 33.4938C31.4879 33.3601 31.6896 33.2814 31.8873 33.2604C32.0526 33.242 32.1839 33.2909 32.2828 33.4076C32.381 33.5236 32.3972 33.6492 32.3302 33.7835C32.1474 34.1853 31.7919 34.5334 31.2631 34.8299C30.9001 35.0443 30.5372 35.2506 30.1736 35.4494C30.0084 35.5472 29.6813 35.7181 29.1952 35.9618C28.7077 36.2054 28.2824 36.451 27.9188 36.6973C27.1246 37.4831 26.3967 38.087 25.7358 38.5091C25.1576 38.8742 24.6708 39.0784 24.2747 39.1212C23.8122 39.1721 23.368 39.0533 22.9401 38.7677C22.4465 38.4243 22.2007 37.9669 22.2027 37.3949C22.2068 36.2196 22.8378 34.9351 24.0952 33.542C25.205 32.309 26.0561 31.6596 26.6493 31.5945C26.9953 31.5558 27.2343 31.5619 27.367 31.6108C27.4821 31.7098 27.5803 31.7784 27.6636 31.817L27.132 28.11C27.067 27.5929 26.9668 26.9449 26.8294 26.1659C26.6919 25.3869 26.6235 24.8386 26.6242 24.521C26.6256 24.3779 26.6256 24.2584 26.6256 24.1634C26.6262 24.0678 26.6601 23.8737 26.7264 23.5805C26.8605 22.9461 27.1835 22.5064 27.6954 22.2594C27.9601 22.1345 28.3975 22.0395 29.0076 21.9723C29.4037 21.9289 29.9068 21.9377 30.5169 21.9981C30.8961 22.0361 31.1845 22.0443 31.3822 22.0225C31.7282 21.9845 32.1616 21.8855 32.6816 21.7253C33.2016 21.5652 33.5605 21.4743 33.7582 21.4525C34.0554 21.42 34.2816 21.479 34.438 21.6283C34.5944 21.7769 34.6723 21.9635 34.6716 22.1854ZM27.084 35.0491C27.1185 34.855 27.1347 34.6942 27.1354 34.5673C27.1354 34.4085 27.0867 34.2864 26.9878 34.2022C26.889 34.1174 26.7082 34.0896 26.4441 34.1188C26.048 34.1615 25.6302 34.5259 25.1908 35.2085C24.752 35.8925 24.5313 36.3845 24.5306 36.6871C24.5299 36.814 24.5665 36.9409 24.6403 37.0685C24.7141 37.1954 24.817 37.2517 24.9484 37.2368C25.3939 37.1886 25.8611 36.8948 26.3486 36.3567C26.8361 35.8186 27.0833 35.3836 27.084 35.0491Z"/><path fill="#f86401" d="M40.991 32.8355C40.9903 33.1538 40.7831 33.4544 40.3701 33.7374C39.9571 34.021 39.5278 34.1872 39.0829 34.2361C38.7857 34.2687 38.4972 34.2558 38.2169 34.1995C37.9373 34.1425 37.6732 34.0325 37.4274 33.869C36.7314 34.8353 36.0434 35.7921 35.3643 36.7394C34.5206 37.61 33.7027 38.0884 32.9111 38.1752C32.4487 38.2261 32.0038 38.1074 31.5766 37.8217C31.0829 37.4783 30.8372 37.021 30.8385 36.4489C30.8426 35.2893 31.5393 34.0454 32.9294 32.7175C34.1198 31.5863 35.0372 30.9857 35.6805 30.9152C36.6542 30.8086 37.3218 30.9267 37.6827 31.268C37.9461 31.5089 38.0768 31.9079 38.0747 32.4644C38.2393 32.5729 38.4492 32.6537 38.7051 32.7052C38.9604 32.7561 39.1784 32.7724 39.3599 32.7521C39.5251 32.7344 39.7688 32.6639 40.0905 32.5404C40.4128 32.4182 40.5976 32.3544 40.6477 32.3483C40.8779 32.3232 40.9924 32.4854 40.991 32.8355ZM35.7191 34.1038C35.7211 33.6912 35.6392 33.4693 35.474 33.4395C35.1449 33.3967 34.6777 33.7055 34.0737 34.3671C33.4697 35.0294 33.1677 35.4867 33.1664 35.7412C33.1664 35.8681 33.203 35.995 33.2761 36.1225C33.3499 36.2494 33.4535 36.3057 33.5848 36.2908C34.0304 36.2426 34.4969 35.9488 34.9851 35.4107C35.4733 34.8726 35.7184 34.4376 35.7191 34.1038Z"/><path fill="#f86401" d="M60.3901 30.5447C60.3887 30.8942 59.7516 31.6786 58.4779 32.8987C57.0384 34.2796 55.8081 35.026 54.785 35.138C54.1912 35.2031 53.7138 35.1237 53.3516 34.9011C52.9893 34.6793 52.8092 34.3773 52.8106 33.9959C52.8112 33.7571 52.8248 33.5094 52.8505 33.2529C52.8756 32.995 52.9297 32.7833 53.013 32.615C52.3346 33.2461 51.6988 33.7842 51.1036 34.2307C49.9464 35.104 48.8895 35.5926 47.932 35.6978C47.454 35.75 47.1371 35.6415 46.9814 35.3728C46.8256 35.104 46.7484 34.7308 46.7498 34.2545C46.7512 33.9206 46.7776 33.6044 46.8277 33.3051C46.8778 33.0059 46.9279 32.71 46.9787 32.4183C46.8135 32.5316 45.9041 33.3384 44.2506 34.8374C43.0257 35.9407 42.1502 36.5209 41.6228 36.5786C41.1942 36.6254 40.8976 36.5548 40.733 36.3662C40.5692 36.1775 40.4879 35.8369 40.49 35.3443C40.4913 34.8828 40.5678 34.3271 40.7181 33.675C40.8685 33.0229 41.0357 32.4406 41.2185 31.9283C41.4013 31.416 41.618 30.9871 41.8658 30.6418C42.1969 30.1925 42.5531 29.9476 42.9323 29.9062C43.0961 29.8879 43.2404 29.9713 43.3636 30.1566C43.4868 30.3405 43.5478 30.5529 43.5471 30.7917C43.5457 31.11 43.478 31.4981 43.3446 31.9575C43.1286 32.6802 42.9201 33.394 42.719 34.0991C43.4638 33.5094 44.43 32.6883 45.6217 31.6365C46.9942 30.4219 47.9774 29.782 48.5705 29.7169C48.884 29.6823 49.1149 29.7644 49.2619 29.9632C49.4102 30.1613 49.4826 30.4029 49.4819 30.6893C49.3485 31.1961 49.2355 31.6413 49.144 32.0254C49.0513 32.4081 49.0052 32.6876 49.0052 32.862C49.0039 33.069 49.0235 33.2373 49.0648 33.3676C49.1061 33.4979 49.2002 33.5555 49.3492 33.5393C49.7446 33.4965 50.6621 32.7358 52.1016 31.2606C53.5412 29.784 54.4336 29.0274 54.7803 28.9888C54.9787 28.9677 55.1601 28.9996 55.324 29.0844C55.4892 29.1693 55.5711 29.2995 55.5704 29.4739C55.5698 29.6171 55.3944 30.24 55.045 31.3427C54.8615 31.9195 54.7701 32.2785 54.7688 32.4216C54.7688 32.6123 54.8175 32.786 54.9157 32.9421C55.0145 33.0975 55.1459 33.1667 55.3111 33.1491C55.8555 33.0894 56.5489 32.7514 57.3919 32.1346C58.2193 31.4723 59.0535 30.8094 59.8965 30.145C60.2262 30.1098 60.3908 30.2421 60.3901 30.5447Z"/><path fill="#f86401" d="M70.43 31.065C70.428 31.351 69.866 31.877 68.742 32.644 67.619 33.41 66.76 33.826 66.166 33.891 65.407 33.974 64.896 33.847 64.634 33.51 64.404 33.011 64.208 32.612 64.044 32.312 63.498 32.848 63.043 33.263 62.679 33.558 61.985 34.109 61.142 34.44 60.154 34.549 59.527 34.618 59.114 34.559 58.917 34.374 58.72 34.189 58.622 33.858 58.624 33.382 58.628 32.476 59.249 31.422 60.49 30.223 61.73 29.022 62.903 28.362 64.009 28.241 64.701 28.165 65.22 28.291 65.565 28.618 65.911 28.946 66.116 29.416 66.179 30.028 66.194 30.123 66.194 30.305 66.177 30.577 66.16 30.849 66.151 31.065 66.15 31.223 66.149 31.541 66.19 31.783 66.271 31.949 66.353 32.114 66.517 32.184 66.765 32.157 67.095 32.12 67.544 31.952 68.115 31.652 68.685 31.352 69.275 31.032 69.886 30.695 70.249 30.656 70.431 30.78 70.43 31.065ZM63.605 30.645C63.606 30.391 63.457 30.279 63.162 30.313 62.765 30.355 62.319 30.619 61.823 31.103 61.327 31.585 61.077 31.986 61.077 32.304 61.092 32.445 61.298 32.494 61.694 32.451 61.991 32.418 62.384 32.184 62.871 31.75 63.359 31.316 63.604 30.947 63.605 30.645ZM87.927 27.695C87.926 28.014 87.719 28.314 87.306 28.598 86.893 28.882 86.463 29.047 86.018 29.096 85.721 29.129 85.434 29.116 85.153 29.059 84.873 29.003 84.61 28.893 84.362 28.729 83.667 29.695 82.979 30.652 82.3 31.599 81.456 32.47 80.638 32.949 79.847 33.036 79.384 33.086 78.94 32.968 78.512 32.682 78.019 32.339 77.772 31.881 77.775 31.309 77.779 30.149 78.476 28.905 79.865 27.577 81.056 26.447 81.973 25.846 82.616 25.776 83.59 25.669 84.257 25.787 84.618 26.129 84.882 26.369 85.012 26.768 85.01 27.325 85.174 27.434 85.384 27.514 85.639 27.566 85.895 27.617 86.114 27.632 86.295 27.612 86.461 27.595 86.704 27.524 87.025 27.401 87.348 27.279 87.533 27.214 87.583 27.209 87.814 27.184 87.929 27.346 87.927 27.695ZM82.655 28.964C82.656 28.551 82.575 28.329 82.41 28.299 82.081 28.257 81.613 28.566 81.01 29.227 80.405 29.889 80.103 30.347 80.103 30.601 80.101 30.729 80.139 30.856 80.212 30.982 80.286 31.109 80.389 31.166 80.52 31.151 80.966 31.103 81.433 30.809 81.921 30.271 82.408 29.733 82.653 29.298 82.655 28.964ZM109.986 13.986C109.985 14.431 109.819 14.782 109.488 15.041 109.224 15.244 108.869 15.371 108.423 15.419 108.11 15.454 107.817 15.458 107.545 15.432 107.274 15.406 107.088 15.399 106.989 15.41 106.84 15.426 106.7 15.449 106.569 15.48 106.437 15.51 105.917 15.654 105.009 15.913 104.101 16.171 103.259 16.406 102.484 16.618 102.053 17.253 101.506 18.258 100.841 19.633 100.376 20.589 99.952 21.51 99.57 22.393 100.215 21.926 101.012 21.493 101.962 21.095 102.91 20.697 103.765 20.456 104.523 20.374 105.166 20.303 105.694 20.38 106.106 20.605 106.698 20.921 106.993 21.477 106.99 22.272 106.986 23.511 106.479 24.79 105.469 26.108 104.856 26.921 104.062 27.723 103.086 28.513 102.111 29.303 101.102 29.953 100.062 30.465 98.691 31.138 97.271 31.556 95.803 31.717 95.143 31.789 94.683 31.737 94.419 31.56 94.155 31.381 94.025 31.079 94.027 30.649 94.028 30.045 94.302 29.69 94.847 29.583 95.126 29.568 95.366 29.553 95.564 29.54 95.762 29.526 95.902 29.507 95.984 29.481 95.869 29.32 95.772 29.163 95.689 29.014 95.558 28.774 95.493 28.559 95.493 28.369 95.495 27.748 95.887 26.649 96.666 25.071 97.231 23.912 97.605 23.097 97.787 22.625 97.971 22.152 98.337 21.298 98.885 20.063 99.367 18.978 99.724 18.176 99.957 17.658 99.858 17.685 99.726 17.708 99.561 17.725 99.115 17.774 98.894 17.64 98.894 17.321 98.896 16.988 98.995 16.695 99.194 16.443 99.393 16.191 99.666 15.927 100.013 15.651 100.559 15.225 101.755 14.741 103.604 14.197 105.452 13.653 106.806 13.334 107.664 13.24 108.307 13.169 108.802 13.163 109.148 13.221 109.708 13.318 109.987 13.573 109.986 13.986ZM104.514 23.115C104.515 22.892 104.42 22.752 104.231 22.694 104.042 22.635 103.732 22.629 103.304 22.676 102.66 22.747 101.984 22.888 101.274 23.101 100.564 23.313 99.904 23.604 99.293 23.973 98.909 25.095 98.676 25.804 98.593 26.099 98.326 26.986 98.192 27.643 98.19 28.073 98.19 28.343 98.106 28.586 97.94 28.803 97.774 29.019 97.568 29.188 97.32 29.312 98.03 29.234 98.851 29.024 99.783 28.684 100.716 28.344 101.389 28.008 101.803 27.676 102.844 26.864 103.589 25.98 104.038 25.026 104.352 24.356 104.512 23.719 104.514 23.115ZM119.969 24.115C119.968 24.306 119.306 24.974 117.983 26.12 116.775 27.173 115.775 27.989 114.982 28.569 114.38 30.732 113.773 32.498 113.158 33.868 111.979 36.491 110.77 37.87 109.533 38.006 108.79 38.088 108.197 37.954 107.754 37.605 107.244 37.2 106.99 36.529 106.993 35.592 106.996 34.845 107.825 33.547 109.48 31.698 111.003 30.006 112.317 28.774 113.425 28.001 113.575 27.604 113.695 27.277 113.787 27.021 113.879 26.765 114.032 26.395 114.248 25.91 113.091 27.006 112.09 27.866 111.247 28.49 110.404 29.115 109.702 29.458 109.141 29.519 108.465 29.593 108.003 29.486 107.757 29.194 107.593 29.006 107.512 28.721 107.513 28.339 107.516 27.45 107.899 26.241 108.663 24.711 109.427 23.182 110.039 22.392 110.501 22.342 111.062 22.28 111.342 22.392 111.341 22.678 111.34 22.933 111.044 23.656 110.455 24.848 109.866 26.04 109.57 26.891 109.568 27.4 109.568 27.67 109.765 27.783 110.161 27.74 110.524 27.7 111.11 27.227 111.922 26.319 112.734 25.412 113.536 24.518 114.33 23.637 115.257 22.677 115.959 22.172 116.437 22.12 116.834 22.076 117.031 22.221 117.03 22.555 117.028 22.984 116.911 23.537 116.677 24.214 116.361 25.059 116.054 25.894 115.754 26.722 115.87 26.629 116.564 26.037 117.838 24.945 118.73 24.18 119.285 23.786 119.499 23.762 119.813 23.727 119.969 23.845 119.969 24.115ZM113.124 29.511C112.329 30.313 111.544 31.121 110.767 31.937 109.675 33.169 109.127 34.119 109.124 34.786 109.123 34.96 109.214 35.117 109.394 35.256 109.576 35.395 109.79 35.451 110.037 35.424 110.367 35.388 110.826 34.786 111.415 33.617 112.005 32.449 112.575 31.08 113.124 29.511Z"/><path fill="#f86401" d="M126.113 20.869C125.948 20.903 125.824 20.925 125.742 20.933 125.659 20.942 125.552 20.93 125.42 20.897 125.419 21.342 125.408 21.66 125.392 21.853 125.375 22.046 125.308 22.41 125.19 22.947 124.805 24.673 124.149 26.019 123.223 26.987 122.296 27.955 121.206 28.506 119.952 28.643 119.491 28.694 119.046 28.576 118.618 28.289 118.124 27.946 117.878 27.488 117.88 26.917 117.884 25.694 118.425 24.483 119.501 23.285 120.461 22.211 121.312 21.633 122.054 21.552 122.812 21.468 123.397 21.619 123.808 22.003 123.859 21.822 123.892 21.613 123.909 21.372 123.926 21.132 123.936 20.885 123.936 20.631 123.525 20.501 123.108 20.356 122.689 20.195 122.269 20.035 121.885 19.862 121.541 19.677 120.405 19.023 119.6 18.318 119.124 17.56 118.715 16.905 118.511 16.158 118.514 15.315 118.517 14.488 118.808 13.738 119.387 13.063 119.966 12.389 120.694 12.003 121.568 11.907 122.97 11.754 124.022 12.6 124.725 14.444 125.264 15.862 125.53 17.581 125.524 19.599 126.266 19.708 126.636 19.93 126.635 20.263 126.633 20.629 126.459 20.831 126.113 20.869ZM123.942 19.177C123.947 18.001 123.719 16.834 123.261 15.677 122.739 14.368 122.139 13.751 121.462 13.825 121.166 13.858 120.942 14.033 120.793 14.351 120.644 14.67 120.568 14.963 120.567 15.233 120.566 15.774 120.868 16.432 121.476 17.207 121.722 17.513 122.08 17.86 122.548 18.245 123.017 18.631 123.481 18.941 123.942 19.177ZM122.984 24.548C122.985 24.293 122.891 24.101 122.701 23.971 122.512 23.84 122.294 23.789 122.047 23.816 121.602 23.865 121.184 24.2 120.794 24.822 120.405 25.445 120.209 25.907 120.208 26.209 120.208 26.336 120.245 26.463 120.318 26.59 120.392 26.717 120.495 26.773 120.627 26.759 121.121 26.705 121.638 26.442 122.175 25.97 122.713 25.498 122.982 25.025 122.984 24.548ZM138.376 22.099C138.376 22.29 137.713 22.958 136.39 24.104 135.183 25.157 134.182 25.974 133.389 26.553 132.788 28.715 132.18 30.482 131.566 31.851 130.386 34.474 129.178 35.853 127.941 35.99 127.198 36.071 126.605 35.937 126.161 35.589 125.651 35.183 125.398 34.512 125.401 33.575 125.404 32.827 126.233 31.529 127.888 29.681 129.41 27.989 130.725 26.757 131.833 25.985 131.982 25.587 132.103 25.26 132.194 25.004 132.286 24.748 132.439 24.378 132.656 23.893 131.498 24.989 130.498 25.85 129.655 26.474 128.812 27.098 128.109 27.441 127.549 27.503 126.872 27.576 126.411 27.469 126.165 27.178 126.001 26.989 125.92 26.704 125.921 26.323 125.924 25.433 126.307 24.223 127.071 22.694 127.834 21.166 128.447 20.376 128.909 20.325 129.47 20.263 129.749 20.376 129.749 20.661 129.748 20.916 129.452 21.639 128.863 22.831 128.273 24.024 127.978 24.874 127.976 25.383 127.975 25.653 128.172 25.766 128.568 25.723 128.931 25.683 129.518 25.21 130.33 24.303 131.14 23.397 131.943 22.502 132.738 21.621 133.664 20.661 134.367 20.156 134.845 20.104 135.241 20.06 135.438 20.205 135.437 20.539 135.436 20.969 135.319 21.521 135.085 22.198 134.769 23.042 134.461 23.878 134.161 24.706 134.277 24.613 134.972 24.021 136.245 22.928 137.138 22.164 137.692 21.769 137.906 21.746 138.221 21.711 138.377 21.829 138.376 22.099ZM131.531 27.495C130.737 28.297 129.952 29.105 129.174 29.922 128.082 31.153 127.534 32.103 127.532 32.77 127.531 32.945 127.621 33.102 127.802 33.241 127.983 33.38 128.197 33.435 128.445 33.409 128.774 33.372 129.234 32.77 129.823 31.601 130.413 30.433 130.982 29.064 131.531 27.495Z"/><path fill="#f86401" d="M152.87 21.9418C153.151 21.9112 153.344 21.9214 153.451 21.9736C153.558 22.0252 153.611 22.1704 153.61 22.4086C153.609 22.6312 153.575 22.8178 153.51 22.9677C153.36 23.2066 153.236 23.4346 153.137 23.6518C153.367 23.4835 153.863 23.2073 154.623 22.8219C155.383 22.4364 155.87 22.2084 156.084 22.1372C156.316 22.0646 156.48 22.1019 156.578 22.2498C156.677 22.3977 156.726 22.5355 156.725 22.6624C156.725 22.7418 156.663 22.8361 156.539 22.9454C156.415 23.0539 156.105 23.2704 155.609 23.5954C155.312 23.7868 154.932 24.0114 154.469 24.2686C153.759 24.6642 153.189 24.9967 152.759 25.2661C152.394 26.1801 152.028 27.0935 151.662 28.0068C151.031 29.2832 150.361 29.9604 149.651 30.0385C149.058 30.1036 148.605 30.0249 148.292 29.805C147.979 29.5859 147.824 29.309 147.825 28.9751C147.828 28.1643 148.242 27.3642 149.07 26.575C149.583 26.0743 150.294 25.5674 151.202 25.055C151.235 24.9716 151.268 24.8888 151.302 24.806C151.302 24.7103 151.344 24.5549 151.427 24.3391C150.981 24.6744 150.453 24.8752 149.842 24.9417C149.264 25.0048 148.828 24.8779 148.532 24.5604C148.236 24.2435 148.089 23.799 148.091 23.227C148.092 23.0363 148.13 22.8497 148.205 22.6665C148.28 22.4832 148.342 22.334 148.391 22.2166C147.365 23.4251 146.621 24.1817 146.158 24.4864C145.53 24.8888 144.812 25.1344 144.003 25.2226C143.08 25.3237 142.619 25.0489 142.621 24.3975C142.622 24.0955 142.643 23.839 142.685 23.628C142.728 23.417 142.799 23.2107 142.898 23.0091C141.673 24.1437 140.872 24.8352 140.492 25.0835C139.863 25.5015 139.302 25.7377 138.808 25.792C138.313 25.8463 137.925 25.7533 137.646 25.5137C137.366 25.2742 137.227 24.9478 137.229 24.5352C137.229 24.4559 137.246 24.3188 137.279 24.1247C137.413 23.459 137.779 22.5531 138.377 21.4077C138.709 20.7678 139.049 20.1266 139.397 19.4853C139.514 19.2499 139.724 19.0008 140.031 18.7369C140.338 18.4729 140.581 18.3548 140.762 18.3826C141.224 18.4912 141.453 18.7755 141.452 19.2363C141.45 19.5701 141.152 20.246 140.555 21.2645C139.957 22.2831 139.659 22.8877 139.658 23.0784C139.657 23.269 139.764 23.3525 139.979 23.3294C140.276 23.2969 140.855 22.9318 141.714 22.2342C142.393 21.6676 143.079 21.1003 143.774 20.5317C144.04 19.8986 144.271 19.429 144.47 19.1209C144.752 18.709 145.049 18.4851 145.363 18.4512C145.676 18.4166 145.902 18.4994 146.042 18.6982C146.181 18.8977 146.251 19.1481 146.25 19.45C146.249 19.6244 146.054 20.1144 145.664 20.9198C145.274 21.7253 145.078 22.2152 145.078 22.3903C145.077 22.6604 145.118 22.8585 145.2 22.984C145.281 23.1103 145.381 23.1591 145.496 23.1306C145.892 23.0553 146.674 22.2627 147.842 20.7536C149.01 19.2437 149.767 18.4695 150.113 18.4315C150.31 18.4098 150.484 18.4152 150.632 18.4464C151.061 18.5265 151.274 18.7335 151.272 19.0673C151.272 19.3537 151.067 20.0112 150.66 21.0406C150.253 22.07 150.049 22.64 150.049 22.7513C150.048 22.9576 150.147 23.0499 150.345 23.0288C150.872 22.9711 151.36 22.7825 151.806 22.4636C152.252 22.1446 152.606 21.9709 152.87 21.9418ZM151.025 26.2656C150.728 26.5208 150.413 26.8329 150.082 27.2027C149.668 27.6608 149.461 27.9776 149.461 28.152C149.46 28.3108 149.484 28.4038 149.533 28.4303C149.582 28.4567 149.673 28.4621 149.805 28.4479C149.987 28.4282 150.251 28.0258 150.601 27.2407C150.734 26.9571 150.875 26.6314 151.025 26.2656Z"/><path fill="#f86401" d="M162.667 21.0834C162.665 21.4491 162.045 21.9934 160.806 22.7167C159.403 23.5371 158.065 24.0175 156.796 24.1566C156.251 24.2164 155.798 24.139 155.436 23.9239C155.238 23.8187 154.983 23.5846 154.671 23.2216C154.507 23.0492 154.404 22.8735 154.364 22.6957C154.323 22.5172 154.303 22.2533 154.305 21.9038C154.307 21.0617 154.674 20.0445 155.403 18.8529C156.316 17.3553 157.381 16.5397 158.602 16.406C159.361 16.3232 159.925 16.4162 160.296 16.6856C160.666 16.955 160.849 17.3675 160.847 17.924C160.845 18.6229 160.356 19.3917 159.381 20.2291C158.488 20.9938 157.628 21.4614 156.804 21.631C156.802 21.8855 156.892 22.066 157.073 22.1732C157.255 22.2804 157.493 22.3177 157.79 22.2851C158.549 22.2017 159.449 21.9051 160.489 21.3942C160.984 21.1336 161.48 20.873 161.975 20.6118C162.239 20.5833 162.421 20.5908 162.519 20.6355C162.619 20.6796 162.667 20.8289 162.667 21.0834ZM159.163 18.7987C159.164 18.5286 159.057 18.4051 158.843 18.4288C158.48 18.437 158.092 18.6385 157.678 19.0334C157.364 19.3381 157.073 19.7113 156.808 20.1531C157.32 20.0968 157.84 19.9095 158.369 19.5892C158.897 19.2682 159.162 19.0049 159.163 18.7987Z"/><path fill="#f86401" d="M182.07 17.243C181.937 17.734 181.135 18.592 179.663 19.817 178.009 21.206 176.662 21.957 175.623 22.071 174.914 22.148 174.378 21.969 174.017 21.532 173.738 21.197 173.599 20.784 173.601 20.291 173.602 20.148 173.652 19.92 173.752 19.608 173.918 19.145 174.044 18.797 174.128 18.566 173.366 19.348 172.613 20.129 171.869 20.91 170.827 21.867 169.819 22.397 168.845 22.504 168.417 22.551 168.128 22.456 167.981 22.218 167.834 21.98 167.76 21.662 167.761 21.265 167.763 20.931 167.818 20.537 167.927 20.08 168.035 19.623 168.147 19.182 168.265 18.756 166.759 20.509 165.98 21.413 165.931 21.465 164.856 22.584 163.989 23.18 163.328 23.251 163.229 23.279 163.163 23.294 163.13 23.297 162.519 23.363 162.071 23.214 161.784 22.848 161.497 22.483 161.354 21.998 161.355 21.394 161.358 20.568 161.489 19.966 161.745 19.589 162.002 19.211 162.461 18.986 163.119 18.913 163.598 18.861 163.919 19.009 164.083 19.356 164.181 19.568 164.23 19.88 164.228 20.293 164.228 20.595 164.259 20.754 164.326 20.771 164.392 20.788 164.491 20.788 164.623 20.774 164.804 20.754 165.582 19.931 166.956 18.303 168.329 16.675 169.321 15.828 169.932 15.761 170.229 15.728 170.447 15.812 170.587 16.01 170.726 16.21 170.795 16.46 170.795 16.762 170.793 17.032 170.647 17.545 170.356 18.299 170.065 19.054 169.919 19.511 169.919 19.67 169.918 19.94 169.959 20.138 170.041 20.264 170.123 20.39 170.221 20.439 170.338 20.41 170.733 20.335 171.63 19.506 173.029 17.923 174.429 16.341 175.3 15.53 175.646 15.492 175.895 15.465 176.146 15.497 176.401 15.588 176.656 15.68 176.783 15.852 176.782 16.107 176.781 16.392 176.698 16.783 176.531 17.278 176.316 17.873 176.107 18.468 175.907 19.061 175.906 19.331 175.921 19.521 175.954 19.628 175.988 19.735 176.085 19.781 176.251 19.762 177.142 19.665 178.057 19.326 179.001 18.746 179.861 18.112 180.718 17.478 181.578 16.844 181.744 16.826 181.876 16.851 181.974 16.92 182.071 16.989 182.104 17.096 182.07 17.243ZM190.605 1.941C190.605 2.29 190.487 2.676 190.255 3.099 190.189 3.234 190.073 3.413 189.906 3.638 189.409 4.471 188.911 5.295 188.414 6.112 187.933 7.023 187.542 8.05 187.242 9.195 187.041 10.249 186.838 11.296 186.637 12.335 186.487 12.748 186.272 13.145 185.99 13.526 185.642 14.008 185.327 14.265 185.047 14.296 184.784 14.324 184.537 14.24 184.306 14.043 184.076 13.846 183.961 13.652 183.962 13.462 183.962 13.303 184.187 12.635 184.637 11.458 185.202 9.998 185.768 8.538 186.334 7.078 187.016 4.859 187.458 3.5 187.657 3.002 188.223 1.638 188.844.918 189.519.844 189.899.802 190.187.922 190.384 1.202 190.534 1.424 190.606 1.671 190.605 1.941ZM184.019 18.912C184.017 19.58 183.809 20.079 183.395 20.41 183.082 20.667 182.66 20.824 182.132 20.882 181.852 20.912 181.618 20.771 181.429 20.458 181.241 20.146 181.147 19.822 181.148 19.488 181.148 19.171 181.328 18.805 181.684 18.393 182.039 17.981 182.423 17.752 182.836 17.707 183.083 17.68 183.342 17.798 183.613 18.062 183.884 18.327 184.019 18.61 184.019 18.912Z"/></svg>