<svg xmlns="http://www.w3.org/2000/svg">
    <symbol id="printer-icon" viewBox="0 0 32 32">
        <path d="M10.3716 2.61719C9.34559 2.61719 8.36157 3.01228 7.63605 3.71554C6.91052 4.4188 6.50293 5.37263 6.50293 6.36719V8.24219H25.8465V6.36719C25.8465 5.37263 25.4389 4.4188 24.7134 3.71554C23.9878 3.01228 23.0038 2.61719 21.9778 2.61719H10.3716ZM21.9778 17.6172H10.3716C9.85862 17.6172 9.36661 17.8147 9.00384 18.1664C8.64108 18.518 8.43729 18.9949 8.43729 19.4922V25.1172C8.43729 25.6145 8.64108 26.0914 9.00384 26.443C9.36661 26.7946 9.85862 26.9922 10.3716 26.9922H21.9778C22.4908 26.9922 22.9828 26.7946 23.3456 26.443C23.7083 26.0914 23.9121 25.6145 23.9121 25.1172V19.4922C23.9121 18.9949 23.7083 18.518 23.3456 18.1664C22.9828 17.8147 22.4908 17.6172 21.9778 17.6172Z"
              fill="currentColor"/>
        <path d="M0.700195 13.8672C0.700195 12.8726 1.1078 11.9188 1.83335 11.2155C2.5589 10.5123 3.54296 10.1172 4.56904 10.1172H27.7821C28.8082 10.1172 29.7922 10.5123 30.5178 11.2155C31.2433 11.9188 31.651 12.8726 31.651 13.8672V19.4922C31.651 20.4867 31.2433 21.4406 30.5178 22.1438C29.7922 22.8471 28.8082 23.2422 27.7821 23.2422H25.8477V19.4922C25.8477 18.4976 25.4401 17.5438 24.7145 16.8405C23.989 16.1373 23.0049 15.7422 21.9788 15.7422H10.3723C9.34623 15.7422 8.36217 16.1373 7.63662 16.8405C6.91107 17.5438 6.50346 18.4976 6.50346 19.4922V23.2422H4.56904C3.54296 23.2422 2.5589 22.8471 1.83335 22.1438C1.1078 21.4406 0.700195 20.4867 0.700195 19.4922V13.8672ZM5.53625 15.7422C5.79277 15.7422 6.03879 15.6434 6.22017 15.4676C6.40156 15.2918 6.50346 15.0533 6.50346 14.8047C6.50346 14.556 6.40156 14.3176 6.22017 14.1418C6.03879 13.966 5.79277 13.8672 5.53625 13.8672C5.27973 13.8672 5.03372 13.966 4.85233 14.1418C4.67094 14.3176 4.56904 14.556 4.56904 14.8047C4.56904 15.0533 4.67094 15.2918 4.85233 15.4676C5.03372 15.6434 5.27973 15.7422 5.53625 15.7422Z"
              fill="currentColor"/>
    </symbol>
    <symbol id="arrow-down-icon" viewBox="0 0 23 10">
        <path d="M1.5 1.22705L11.5 8.77332L21.5 1.22705" fill="none" stroke="currentColor" stroke-width="1.5"
              stroke-linecap="round"/>
    </symbol>
    <symbol id="arrow-down-icon-2" viewBox="0 0 31 11">
        <path d="M18.4543 0.810547L18.4543 2.63041L23.6802 2.63041L19.6889 4.9232L15.6974 7.216L11.706 4.9232L7.71464 2.63041L12.7114 2.63041L12.7114 0.810547L0.851562 0.810547L8.21722 5.49974L15.5829 10.189L22.9485 5.49974L30.3142 0.810547L18.4543 0.810547Z"
              fill="currentColor"/>
    </symbol>
    <symbol id="arrow-right-icon" viewBox="0 0 9 25">
        <path d="M0.664063 10.4314L2.20654 10.4314L2.20654 6.19835L4.14987 9.43143L6.09319 12.6645L4.14987 15.8976L2.20654 19.1307V15.0833L0.664063 15.0833L0.664062 24.6899L4.63853 18.7236L8.61301 12.7573L4.63853 6.79103L0.664063 0.824726L0.664063 10.4314Z"
              fill="currentColor"/>
    </symbol>
    <symbol id="arrow-left-icon" viewBox="0 0 9 25">
        <path d="M8.45508 15.1277L6.9126 15.1277L6.9126 19.3607L4.96927 16.1276L3.02595 12.8945L4.96927 9.66144L6.9126 6.42835L6.9126 10.4758L8.45508 10.4758L8.45508 0.869141L4.48061 6.83544L0.506133 12.8017L4.48061 18.7681L8.45508 24.7344L8.45508 15.1277Z"
              fill="currentColor"/>
    </symbol>
    <symbol id="triangle-right-icon" viewBox="0 0 12 16">
        <path d="M11.0009 7.18095C11.5698 7.57904 11.5698 8.42145 11.0009 8.81954L2.36626 14.8623C1.70347 15.3262 0.792895 14.852 0.792895 14.043L0.792895 1.95747C0.792895 1.1485 1.70347 0.674331 2.36626 1.13817L11.0009 7.18095Z"
              fill="currentColor"/>
    </symbol>
    <symbol id="burger-icon" viewBox="0 0 43 28">
        <path d="M0.476318 2.69476C0.476318 1.44315 1.49095 0.428528 2.74255 0.428528H40.7008C41.9524 0.428528 42.967 1.44315 42.967 2.69476C42.967 3.94637 41.9524 4.96099 40.7008 4.96099H2.74255C1.49094 4.96099 0.476318 3.94637 0.476318 2.69476Z"
              fill="currentColor"/>
        <path d="M0.476318 14.2107C0.476318 12.9591 1.49095 11.9445 2.74255 11.9445H40.7008C41.9524 11.9445 42.967 12.9591 42.967 14.2107C42.967 15.4623 41.9524 16.4769 40.7008 16.4769H2.74255C1.49094 16.4769 0.476318 15.4623 0.476318 14.2107Z"
              fill="currentColor"/>
        <path d="M0.476318 25.7266C0.476318 24.475 1.49095 23.4604 2.74255 23.4604H40.7008C41.9524 23.4604 42.967 24.475 42.967 25.7266C42.967 26.9782 41.9524 27.9929 40.7008 27.9929H2.74255C1.49094 27.9929 0.476318 26.9782 0.476318 25.7266Z"
              fill="currentColor"/>
    </symbol>
    <symbol id="phone-icon" viewBox="0 0 33 35">
        <path d="M30.2503 0.123291H17.8659C16.3498 0.123291 15.1162 1.39439 15.1162 2.95661V10.4319C15.1162 11.6638 15.8824 12.7165 16.9475 13.1028V16.8769C17.078 18.2432 18.3224 17.728 18.5017 17.5544L22.7947 13.2652H30.2504C31.7665 13.2652 33.0001 11.9941 33.0001 10.4319V2.95661C33 1.39431 31.7665 0.123291 30.2503 0.123291ZM31.1688 10.4319C31.1688 10.9526 30.7611 11.3782 30.2504 11.3782H22.4252C22.1861 11.3782 21.9578 11.4734 21.7894 11.647L18.7843 14.6483V12.3246C18.7843 11.8038 18.3767 11.3783 17.866 11.3783C17.3606 11.3783 16.9476 10.9583 16.9476 10.432V2.95661C16.9476 2.43587 17.3552 2.01032 17.866 2.01032H30.2504C30.7558 2.01032 31.1688 2.43033 31.1688 2.95661V10.4319Z"
              fill="currentColor"/>
        <path d="M27.6961 26.9616L23.1585 22.2916C22.6369 21.7541 20.8436 20.6678 19.2677 22.2916L16.9147 24.7162C16.7571 24.8786 16.5017 24.9625 16.1485 24.9625C15.1051 24.9625 13.2466 24.1394 11.4642 22.314C10.3665 21.1828 9.50791 19.867 9.1167 18.7023C8.80694 17.7784 8.8124 17.0281 9.12754 16.7033L11.4805 14.2787C12.551 13.1756 12.551 11.3725 11.4805 10.2695L6.95393 5.58835C6.43225 5.05081 4.67154 3.93094 3.06306 5.58835L1.57411 7.12268C-0.19745 8.94813 -0.485438 12.0166 0.769825 15.7459C1.95448 19.2512 4.36724 23.0084 7.58429 26.3177C12.2522 31.1276 17.7516 34.1233 21.925 34.1233C23.6966 34.1233 25.1801 33.5633 26.2071 32.505L27.6961 30.9708C28.7667 29.8677 28.7667 28.0646 27.6961 26.9616ZM26.3919 29.6325L24.9029 31.1667C24.2128 31.8779 23.2075 32.2362 21.9141 32.2362C18.2624 32.2362 13.1434 29.3917 8.87217 24.9793C5.85081 21.866 3.5902 18.3663 2.49792 15.1298C1.49803 12.1565 1.63387 9.7263 2.86745 8.4552L4.3564 6.92095C4.87807 6.38341 5.48129 6.74174 5.65521 6.92095L10.1873 11.5909C10.546 11.9605 10.546 12.5596 10.1873 12.9292L7.83429 15.3539C6.98108 16.233 6.82893 17.6385 7.38869 19.3071C7.87775 20.7518 8.86133 22.2916 10.171 23.6355C12.0947 25.6177 14.3825 26.8439 16.1485 26.8439C16.9908 26.8439 17.7027 26.5695 18.2081 26.0488L20.5611 23.6242C20.9035 23.2714 21.5121 23.2714 21.8599 23.6242L26.392 28.2942C26.7506 28.6694 26.7506 29.263 26.3919 29.6325Z"
              fill="currentColor"/>
        <path d="M19.9252 7.64337C20.4324 7.64337 20.8435 7.2197 20.8435 6.69708C20.8435 6.17446 20.4324 5.75079 19.9252 5.75079C19.418 5.75079 19.0068 6.17446 19.0068 6.69708C19.0068 7.2197 19.418 7.64337 19.9252 7.64337Z"
              fill="currentColor"/>
        <path d="M24.0551 7.64337C24.5623 7.64337 24.9734 7.2197 24.9734 6.69708C24.9734 6.17446 24.5623 5.75079 24.0551 5.75079C23.5479 5.75079 23.1367 6.17446 23.1367 6.69708C23.1367 7.2197 23.5479 7.64337 24.0551 7.64337Z"
              fill="currentColor"/>
        <path d="M28.1852 7.64337C28.6924 7.64337 29.1036 7.2197 29.1036 6.69708C29.1036 6.17446 28.6924 5.75079 28.1852 5.75079C27.678 5.75079 27.2668 6.17446 27.2668 6.69708C27.2668 7.2197 27.678 7.64337 28.1852 7.64337Z"
              fill="currentColor"/>
    </symbol>
    <symbol id="phone-icon-2" viewBox="0 0 14 15">
        <path d="M6.1235 0.453247C5.89892 0.453247 5.71646 0.635303 5.71646 0.860347V13.3427C5.71646 13.5677 5.89892 13.7498 6.1235 13.7498H13.6018C13.8266 13.7498 14.0089 13.5677 14.0089 13.3427V0.860347C14.0089 0.635303 13.8266 0.453247 13.6018 0.453247H6.1235ZM13.1945 12.9356H6.5306V1.26739H13.1947V12.9356H13.1945Z"
              fill="currentColor"/>
        <path d="M1.49132 0.113159C0.818006 0.113159 0.27002 0.661089 0.27002 1.3344V12.8919C0.27002 13.5653 0.817949 14.1132 1.49126 14.1132H4.06941C4.74267 14.1132 5.29065 13.5654 5.29065 12.8919V1.3344C5.29071 0.661089 4.74272 0.113159 4.06947 0.113159H1.49132ZM4.47657 1.3344V12.8919C4.47657 13.1164 4.29394 13.299 4.06952 13.299H1.49132C1.26684 13.299 1.08422 13.1164 1.08422 12.8919V1.3344C1.08422 1.10993 1.26684 0.927359 1.49132 0.927359H4.06947C4.29394 0.927302 4.47657 1.10964 4.47657 1.3344Z"
              fill="currentColor"/>
        <path d="M7.95073 7.65656H8.51837C8.66789 7.65656 8.78975 7.53486 8.78975 7.38517V6.81777C8.78975 6.66791 8.66789 6.54639 8.51837 6.54639H7.95073C7.80099 6.54639 7.67935 6.66791 7.67935 6.81777V7.38517C7.6793 7.53492 7.80099 7.65656 7.95073 7.65656Z"
              fill="currentColor"/>
        <path d="M9.57879 7.65656H10.1465C10.296 7.65656 10.4179 7.53486 10.4179 7.38517V6.81777C10.4179 6.66791 10.296 6.54639 10.1465 6.54639H9.57879C9.42904 6.54639 9.30746 6.66791 9.30746 6.81777V7.38517C9.30741 7.53492 9.42904 7.65656 9.57879 7.65656Z"
              fill="currentColor"/>
        <path d="M11.2072 7.65656H11.7749C11.9243 7.65656 12.0462 7.53486 12.0462 7.38517V6.81777C12.0462 6.66791 11.9243 6.54639 11.7749 6.54639H11.2072C11.0574 6.54639 10.9358 6.66791 10.9358 6.81777V7.38517C10.9358 7.53492 11.0575 7.65656 11.2072 7.65656Z"
              fill="currentColor"/>
        <path d="M7.95073 9.28479H8.51837C8.66789 9.28479 8.78975 9.16316 8.78975 9.01347V8.44606C8.78975 8.29603 8.66789 8.17468 8.51837 8.17468H7.95073C7.80099 8.17468 7.67935 8.29609 7.67935 8.44606V9.01347C7.6793 9.16322 7.80099 9.28479 7.95073 9.28479Z"
              fill="currentColor"/>
        <path d="M9.57879 9.28479H10.1465C10.296 9.28479 10.4179 9.16316 10.4179 9.01347V8.44606C10.4179 8.29603 10.296 8.17468 10.1465 8.17468H9.57879C9.42904 8.17468 9.30746 8.29609 9.30746 8.44606V9.01347C9.30741 9.16322 9.42904 9.28479 9.57879 9.28479Z"
              fill="currentColor"/>
        <path d="M11.2072 9.28479H11.7749C11.9243 9.28479 12.0462 9.16316 12.0462 9.01347V8.44606C12.0462 8.29603 11.9243 8.17468 11.7749 8.17468H11.2072C11.0574 8.17468 10.9358 8.29609 10.9358 8.44606V9.01347C10.9358 9.16322 11.0575 9.28479 11.2072 9.28479Z"
              fill="currentColor"/>
        <path d="M7.95073 10.9132H8.51837C8.66789 10.9132 8.78975 10.7916 8.78975 10.6418V10.0744C8.78975 9.9244 8.66789 9.8031 8.51837 9.8031H7.95073C7.80099 9.8031 7.67935 9.92445 7.67935 10.0744V10.6418C7.6793 10.7916 7.80099 10.9132 7.95073 10.9132Z"
              fill="currentColor"/>
        <path d="M9.57879 10.9132H10.1465C10.296 10.9132 10.4179 10.7916 10.4179 10.6418V10.0744C10.4179 9.9244 10.296 9.8031 10.1465 9.8031H9.57879C9.42904 9.8031 9.30746 9.92445 9.30746 10.0744V10.6418C9.30741 10.7916 9.42904 10.9132 9.57879 10.9132Z"
              fill="currentColor"/>
        <path d="M11.2072 10.9132H11.7749C11.9243 10.9132 12.0462 10.7916 12.0462 10.6418V10.0744C12.0462 9.9244 11.9243 9.8031 11.7749 9.8031H11.2072C11.0574 9.8031 10.9358 9.92445 10.9358 10.0744V10.6418C10.9358 10.7916 11.0575 10.9132 11.2072 10.9132Z"
              fill="currentColor"/>
    </symbol>
    <symbol id="phone-icon-3" viewBox="0 0 10 15">
        <path d="M7.86171 0.213867H1.73937C1.08172 0.213867 0.546631 0.783057 0.546631 1.48274V12.945C0.546631 13.6447 1.08172 14.2139 1.73937 14.2139H7.86171C8.51936 14.2139 9.05445 13.6447 9.05445 12.945V1.48274C9.05445 0.783057 8.51941 0.213867 7.86171 0.213867ZM1.34179 3.17999H8.25929V10.6151H1.34179V3.17999ZM1.73937 1.05979H7.86171C8.08096 1.05979 8.25929 1.2495 8.25929 1.48274V2.33408H1.34179V1.48274C1.34179 1.2495 1.52012 1.05979 1.73937 1.05979ZM7.86171 13.3679H1.73937C1.52012 13.3679 1.34179 13.1782 1.34179 12.945V11.461H8.25929V12.945C8.25929 13.1782 8.08096 13.3679 7.86171 13.3679Z"
              fill="currentColor"/>
        <path d="M4.44264 1.99583H5.15828C5.3047 1.99583 5.42334 1.86956 5.42334 1.71386C5.42334 1.55815 5.3047 1.43188 5.15828 1.43188H4.44264C4.29622 1.43188 4.17758 1.55815 4.17758 1.71386C4.17758 1.86956 4.29627 1.99583 4.44264 1.99583Z"
              fill="currentColor"/>
        <path d="M4.80065 11.8667C4.53368 11.8667 4.3165 12.0977 4.3165 12.3818C4.3165 12.6658 4.53368 12.8968 4.80065 12.8968C5.06761 12.8968 5.28479 12.6658 5.28479 12.3818C5.28479 12.0977 5.06761 11.8667 4.80065 11.8667ZM4.80065 12.4306C4.77525 12.4306 4.75469 12.4087 4.75469 12.3818C4.75469 12.3548 4.77531 12.3329 4.80065 12.3329C4.82599 12.3329 4.84661 12.3548 4.84661 12.3818C4.84661 12.4087 4.82604 12.4306 4.80065 12.4306Z"
              fill="currentColor"/>
    </symbol>
    <symbol id="phone-icon-4" viewBox="0 0 18 15">
        <path d="M14.1177 4.88003H9.74297L11.3067 3.30172C11.4296 3.17888 11.4129 2.98891 11.2697 2.88356C11.1272 2.7782 10.912 2.7895 10.7891 2.91291L8.74253 4.96393C8.7387 4.96779 8.73612 4.97136 8.73263 4.97538C8.72548 4.98326 8.71857 4.99091 8.7124 4.99942C8.70688 5.00695 8.70232 5.01445 8.69775 5.02227C8.693 5.03052 8.68808 5.03852 8.68425 5.0471C8.67992 5.05654 8.67692 5.0662 8.67375 5.07594C8.67134 5.08359 8.66834 5.09105 8.6666 5.09891C8.66311 5.11522 8.66126 5.13171 8.66084 5.14817C8.66084 5.14997 8.66025 5.15162 8.66025 5.15338C8.66025 5.15518 8.66084 5.15689 8.66084 5.15869C8.66126 5.17515 8.66311 5.19161 8.6666 5.20786C8.66834 5.21575 8.67134 5.22318 8.67375 5.23083C8.67692 5.24057 8.67992 5.25032 8.68425 5.25976C8.68808 5.26834 8.693 5.27637 8.69775 5.28459C8.70232 5.29238 8.70692 5.30021 8.7124 5.30764C8.71857 5.31622 8.72548 5.3242 8.73263 5.33214C8.73612 5.33601 8.7387 5.3403 8.74253 5.3441L10.7891 7.39641C10.8563 7.46426 10.952 7.49892 11.0479 7.49892C11.1265 7.49892 11.2054 7.47574 11.2697 7.42819C11.4129 7.32283 11.4296 7.14782 11.3067 7.02499L9.74297 5.46643H14.1177C14.3062 5.46643 14.4588 5.33529 14.4588 5.17323C14.4588 5.01118 14.3062 4.88003 14.1177 4.88003Z"
              fill="currentColor"/>
        <path d="M17.0428 11.6951C16.9282 10.6693 15.561 9.85093 15.4129 9.76531C15.266 9.67484 13.9427 8.88335 12.7707 8.88335C12.2752 8.88335 11.8611 9.01608 11.5269 9.28878L11.4947 9.31838C11.1091 9.70667 10.3289 10.2812 9.87915 10.2812C9.84908 10.2812 9.8234 10.2782 9.80024 10.2717C9.54655 10.1116 8.29217 9.30922 7.45653 8.59094C6.79253 8.01994 5.71074 6.8125 5.49273 6.56723C5.38279 6.25683 6.06244 5.50382 6.61243 5.09515L6.64313 5.0693C7.90036 3.92786 6.15549 1.83389 6.08815 1.75447C6.04305 1.69659 4.97189 0.334351 3.67271 0.334351C3.22734 0.334351 2.82517 0.483487 2.49912 0.760784C2.34785 0.867407 -1.17791 3.41211 0.951888 7.15901C1.05806 7.34665 1.19086 7.53591 1.36938 7.75507C1.89274 8.39689 3.24797 10.0087 4.52741 11.1087C5.74203 12.153 7.6488 13.3452 8.41241 13.8092C8.67394 13.9684 8.90133 14.0865 9.12715 14.181C10.0602 14.5708 11.0017 14.7687 11.9256 14.7687C14.6461 14.7687 16.3199 13.0928 16.5488 12.8489C16.9194 12.5191 17.0904 12.1207 17.0428 11.6951ZM16.0794 12.4731L16.0575 12.4889C15.8943 12.6652 14.3918 14.2058 11.9257 14.2058C11.1004 14.2058 10.2525 14.0326 9.40784 13.6794C9.21397 13.5983 9.01541 13.4975 8.78267 13.3562C8.03287 12.9001 6.16083 11.7318 4.98101 10.7174C3.73759 9.64812 2.40866 8.06795 1.89501 7.43771C1.7362 7.24308 1.6197 7.0779 1.52825 6.91664C-0.349159 3.61388 2.56711 1.42555 2.92727 1.17033C3.15404 0.978653 3.3977 0.885619 3.67271 0.885619C4.46919 0.885619 5.30105 1.73338 5.56196 2.06938C5.9848 2.56959 6.92002 4.0159 6.17959 4.68865C6.10973 4.74061 4.47201 5.96905 4.91833 6.81735L4.95529 6.87066C5.17203 7.11537 6.28924 8.36724 7.00303 8.98078C7.91728 9.76697 9.29944 10.6402 9.45386 10.7371L9.50899 10.7649C9.62205 10.8098 9.74671 10.8324 9.87951 10.8324C10.8235 10.8324 11.9357 9.72353 11.9805 9.67831C12.1819 9.51443 12.4403 9.43467 12.7707 9.43467C13.7598 9.43467 14.9882 10.182 15.0474 10.2184C15.4 10.4222 16.3315 11.0947 16.4045 11.7478C16.4345 12.0178 16.3281 12.255 16.0794 12.4731Z"
              fill="currentColor" stroke="currentColor" stroke-width="0.3"/>
    </symbol>
    <symbol id="search-icon" viewBox="0 0 32 32">
        <path d="M23.2456 20.5168C25.0611 18.0391 25.8742 14.9672 25.5224 11.9156C25.1705 8.86401 23.6795 6.05784 21.3478 4.05849C19.016 2.05914 16.0154 1.01406 12.9463 1.13234C9.87723 1.25061 6.96595 2.52352 4.79494 4.69639C2.62393 6.86926 1.35329 9.78185 1.23723 12.8515C1.12117 15.9211 2.16824 18.9213 4.16898 21.252C6.16971 23.5826 8.97655 25.0718 12.028 25.4215C15.0794 25.7713 18.1503 24.9559 20.6263 23.1383H20.6245C20.6795 23.2133 20.7407 23.2852 20.8082 23.354L28.0267 30.5735C28.3783 30.9253 28.8552 31.1231 29.3525 31.1233C29.8499 31.1235 30.327 30.926 30.6788 30.5744C31.0306 30.2228 31.2283 29.7458 31.2285 29.2484C31.2287 28.7509 31.0313 28.2738 30.6797 27.922L23.4612 20.7025C23.3942 20.6346 23.3222 20.5737 23.2456 20.5168ZM23.7294 13.3086C23.7294 14.663 23.4626 16.0041 22.9444 17.2554C22.4262 18.5067 21.6666 19.6437 20.709 20.6014C19.7514 21.5591 18.6146 22.3188 17.3635 22.8371C16.1124 23.3554 14.7714 23.6221 13.4172 23.6221C12.063 23.6221 10.7221 23.3554 9.47097 22.8371C8.21984 22.3188 7.08305 21.5591 6.12548 20.6014C5.16791 19.6437 4.40832 18.5067 3.89009 17.2554C3.37186 16.0041 3.10513 14.663 3.10513 13.3086C3.10513 10.5732 4.19158 7.94995 6.12548 6.01578C8.05937 4.08162 10.6823 2.99501 13.4172 2.99501C16.1522 2.99501 18.7751 4.08162 20.709 6.01578C22.6429 7.94995 23.7294 10.5732 23.7294 13.3086Z"
              fill="currentColor" stroke="currentColor"/>
    </symbol>
    <symbol id="home-icon" viewBox="0 0 31 30">
        <rect x="6.34824" y="11.2181" width="3.96367" height="12.1935" rx="1" fill="currentColor"/>
        <rect x="13.1158" y="11.2181" width="3.96367" height="12.1935" rx="1" fill="currentColor"/>
        <rect x="19.8834" y="11.2181" width="3.96367" height="12.1935" rx="1" fill="currentColor"/>
        <rect x="3.28876" y="25.3076" width="23.7032" height="4.06449" rx="1" fill="currentColor"/>
        <path d="M14.7245 1.16916C15.0181 1.01292 15.3702 1.01292 15.6639 1.16916L26.5905 6.98268C27.51 7.47192 27.1624 8.86551 26.1208 8.86551H15.1942H4.26752C3.22595 8.86551 2.87829 7.47192 3.79781 6.98268L14.7245 1.16916Z"
              fill="currentColor"/>
    </symbol>
    <symbol id="eye-icon" viewBox="0 0 18 13">
        <path d="M8.643.826C3.217.826 0 6.663 0 6.663S3.217 12.5 8.643 12.5c5.297 0 8.514-5.837 8.514-5.837S13.94.826 8.643.826ZM8.579 2.77c2.38 0 4.289 1.752 4.289 3.892 0 2.16-1.909 3.891-4.29 3.891-2.358 0-4.289-1.731-4.289-3.891 0-2.14 1.93-3.892 4.29-3.892Zm0 1.946c-1.18 0-2.145.876-2.145 1.946 0 1.07.965 1.946 2.145 1.946 1.18 0 2.144-.876 2.144-1.946 0-.195-.086-.37-.128-.545a1.067 1.067 0 0 1-.944.545c-.6 0-1.072-.428-1.072-.973 0-.39.257-.7.6-.856-.193-.058-.386-.117-.6-.117Z"
              fill="currentColor"/>
    </symbol>
    <symbol id="comment-icon" viewBox="0 0 16 14">
        <path d="M.157 2.466c0-.44.198-.863.55-1.174.353-.312.83-.487 1.329-.487h11.272c.499 0 .976.175 1.329.487.352.311.55.733.55 1.174v6.64c0 .44-.198.863-.55 1.174a2.01 2.01 0 0 1-1.329.487H4.304c-.25 0-.488.087-.665.243L.96 13.378a.492.492 0 0 1-.24.114.527.527 0 0 1-.272-.024.461.461 0 0 1-.21-.152.382.382 0 0 1-.08-.231V2.465Zm3.288.83a.503.503 0 0 0-.332.121.392.392 0 0 0-.138.294c0 .11.05.215.138.293a.503.503 0 0 0 .332.122h8.454a.503.503 0 0 0 .332-.122.392.392 0 0 0 .138-.293c0-.11-.05-.216-.138-.294a.503.503 0 0 0-.332-.121H3.445Zm0 2.075a.503.503 0 0 0-.332.122.392.392 0 0 0-.138.293c0 .11.05.216.138.293a.503.503 0 0 0 .332.122h8.454a.503.503 0 0 0 .332-.122.392.392 0 0 0 .138-.293c0-.11-.05-.216-.138-.293a.503.503 0 0 0-.332-.122H3.445Zm0 2.075a.503.503 0 0 0-.332.122.392.392 0 0 0-.138.293c0 .11.05.216.138.294a.503.503 0 0 0 .332.121h4.697a.503.503 0 0 0 .332-.121.392.392 0 0 0 .137-.294c0-.11-.049-.215-.137-.293a.503.503 0 0 0-.332-.122H3.445Z"
              fill="currentColor"/>
    </symbol>
    <symbol id="sort-icon" viewBox="0 0 8 13">
        <path d="M4.03617 0.190255C3.84091 -0.00500679 3.52433 -0.00500679 3.32906 0.190255L0.147083 3.37224C-0.0481789 3.5675 -0.0481789 3.88408 0.147083 4.07934C0.342345 4.2746 0.658928 4.2746 0.85419 4.07934L3.68262 1.25092L6.51104 4.07934C6.70631 4.2746 7.02289 4.2746 7.21815 4.07934C7.41341 3.88408 7.41341 3.5675 7.21815 3.37224L4.03617 0.190255ZM3.68262 12.5308H4.18262L4.18262 0.543809H3.68262H3.18262L3.18262 12.5308H3.68262Z"
              fill="currentColor"/>
    </symbol>
    <symbol id="pagination-arrow-next" viewBox="0 0 26 26">
        <path fill-rule="evenodd" clip-rule="evenodd"
              d="M23.938 3.449a1.563 1.563 0 0 0-1.563-1.562H3.625a1.562 1.562 0 0 0-1.563 1.562V22.2a1.562 1.562 0 0 0 1.563 1.563h18.75a1.563 1.563 0 0 0 1.563-1.563V3.45ZM.5 3.449A3.125 3.125 0 0 1 3.625.324h18.75A3.125 3.125 0 0 1 25.5 3.45V22.2a3.125 3.125 0 0 1-3.125 3.125H3.625A3.125 3.125 0 0 1 .5 22.2V3.45Zm7.031 8.594a.781.781 0 1 0 0 1.562h9.052l-3.355 3.353a.783.783 0 0 0 1.106 1.107l4.688-4.688a.781.781 0 0 0 0-1.106l-4.688-4.688a.783.783 0 0 0-1.106 1.107l3.355 3.353H7.53Z"
              fill="currentColor"/>
    </symbol>
    <symbol id="pagination-arrow-prev" viewBox="0 0 26 26">
        <path fill-rule="evenodd" clip-rule="evenodd"
              d="M23.714 3.76a1.563 1.563 0 0 0-1.563-1.563H3.401A1.562 1.562 0 0 0 1.84 3.759v18.75A1.562 1.562 0 0 0 3.4 24.072h18.75a1.562 1.562 0 0 0 1.563-1.563V3.76Zm-23.438 0A3.125 3.125 0 0 1 3.401.633h18.75a3.125 3.125 0 0 1 3.125 3.125v18.75a3.125 3.125 0 0 1-3.125 3.125H3.401A3.125 3.125 0 0 1 .276 22.51V3.76Zm17.969 8.593a.78.78 0 1 1 0 1.562H9.193l3.355 3.354a.782.782 0 1 1-1.106 1.106l-4.688-4.688a.782.782 0 0 1 0-1.106l4.688-4.687A.782.782 0 0 1 12.548 9l-3.355 3.353h9.052Z"
              fill="currentColor"/>
    </symbol>
    <symbol id="pagination-desktop-arrow-prev" viewBox="0 0 13 20">
        <path d="M9.734 16.481a.728.728 0 0 0 .43-.663V4.182a.728.728 0 0 0-1.21-.544L2.407 9.456a.727.727 0 0 0 0 1.088l6.545 5.818a.727.727 0 0 0 .781.12Z"
              fill="currentColor"/>
    </symbol>
    <symbol id="pagination-desktop-arrow-next" viewBox="0 0 13 16">
        <path d="M2.593 14.481a.728.728 0 0 1-.43-.663V2.182a.727.727 0 0 1 1.21-.544L9.92 7.456a.726.726 0 0 1 0 1.088l-6.545 5.818a.727.727 0 0 1-.781.12Z"
              fill="currentColor"/>
    </symbol>
    <symbol id="pdf-icon" viewBox="0 0 52 55">
        <path d="M52 13.4276V50.703C52 53.077 50.0592 54.9999 47.6631 54.9999H14.0734C11.6772 54.9999 9.73645 53.077 9.73645 50.703V4.29675C9.73645 1.92273 11.6772 -0.00012207 14.0734 -0.00012207H38.447L52 13.4276Z"
              fill="#E2E4E1"/>
        <path d="M52 13.4276V22.7948L38.4471 9.36706V0.0858154L38.4904 0.0428467L52 13.4276Z" fill="#CBCCCC"/>
        <path d="M52 13.4276H42.784C40.3878 13.4276 38.4471 11.5048 38.4471 9.13074V-0.00012207L52 13.4276Z"
              fill="#B2B3B4"/>
        <path d="M36.6472 46.7393L9.73645 46.75V27.3496L36.6472 27.3389C38.1435 27.3389 39.3578 28.4883 39.3578 29.917V44.1719C39.3578 45.5898 38.1435 46.7393 36.6472 46.7393Z"
              fill="#CBCCCC"/>
        <path d="M2.71059 25.792H36.6472C38.1435 25.792 39.3578 26.9951 39.3578 28.4775V42.5176C39.3578 44 38.1435 45.2031 36.6472 45.2031H2.71059C1.21435 45.2031 0 44 0 42.5176V28.4775C0 26.9951 1.21435 25.792 2.71059 25.792Z"
              fill="currentColor"/>
        <path d="M10.9183 36.4695V39.5417H9.55219V31.4421H12.6856C13.5855 31.4421 14.2903 31.6677 14.7999 32.1296C15.3095 32.5916 15.5697 33.1931 15.5697 33.9558C15.5697 34.7185 15.3095 35.3201 14.7999 35.782C14.2903 36.2439 13.5855 36.4695 12.6856 36.4695H10.9183ZM10.9183 35.3845H12.6856C13.1952 35.3845 13.5747 35.2556 13.8241 34.9871C14.0843 34.7078 14.2144 34.3425 14.2036 33.9666C14.2144 33.5906 14.0735 33.2146 13.8241 32.9353C13.5747 32.6667 13.1952 32.5271 12.6856 32.5271H10.9183V35.3845Z"
              fill="white"/>
        <path d="M16.871 39.542V31.4424H19.5708C20.6116 31.4424 21.4465 31.7646 22.097 32.4092C22.7476 33.0537 23.0728 33.8701 23.0728 34.8799V36.1045C23.0728 37.1143 22.7476 37.9414 22.097 38.5752C21.4465 39.209 20.6008 39.5312 19.5708 39.5312L16.871 39.542ZM18.2371 32.5273V38.457H19.5708C20.2213 38.457 20.7417 38.2422 21.1321 37.8018C21.5224 37.3613 21.7175 36.8027 21.7067 36.1045V34.8691C21.7067 34.1816 21.5115 33.623 21.1321 33.1826C20.7526 32.7422 20.2213 32.5273 19.5708 32.5273H18.2371Z"
              fill="white"/>
        <path d="M29.231 36.083H25.9349V39.5312H24.5688V31.4316H29.7948V32.5166H25.9241V34.9873H29.2201V36.083H29.231Z"
              fill="white"/>
    </symbol>
    <symbol id="fb2-icon" viewBox="0 0 52 55">
        <path d="M52 13.4277V50.7031C52 53.0771 50.0592 55 47.6631 55H14.0734C11.6772 55 9.73645 53.0771 9.73645 50.7031V4.29688C9.73645 1.92285 11.6772 0 14.0734 0H38.447L52 13.4277Z"
              fill="#E2E4E1"/>
        <path d="M52 13.4276V22.7948L38.4471 9.36706V0.0858154L38.4904 0.0428467L52 13.4276Z" fill="#CBCCCC"/>
        <path d="M52 13.4277H42.784C40.3878 13.4277 38.4471 11.5049 38.4471 9.13086V0L52 13.4277Z" fill="#B2B3B4"/>
        <path d="M36.6472 46.7391L9.73645 46.7499V27.3495L36.6472 27.3387C38.1435 27.3387 39.3578 28.4882 39.3578 29.9169V44.1718C39.3578 45.5897 38.1435 46.7391 36.6472 46.7391Z"
              fill="#CBCCCC"/>
        <path d="M2.71059 25.792H36.6472C38.1435 25.792 39.3578 26.9951 39.3578 28.4775V42.5176C39.3578 44 38.1435 45.2031 36.6472 45.2031H2.71059C1.21435 45.2031 0 44 0 42.5176V28.4775C0 26.9951 1.21435 25.792 2.71059 25.792Z"
              fill="currentColor"/>
        <path d="M12.4492 38.8462V32.3007H16.3739V33.0039H13.2418V35.2155H16.0799V35.9186H13.2418V38.8462H12.4492ZM17.4614 38.8462V32.3007H19.7498C20.2058 32.3007 20.5818 32.3796 20.878 32.5372C21.1741 32.6928 21.3947 32.9027 21.5396 33.1669C21.6844 33.4289 21.7569 33.7198 21.7569 34.0394C21.7569 34.3206 21.7068 34.5529 21.6067 34.7361C21.5087 34.9193 21.3787 35.0642 21.2168 35.1708C21.057 35.2773 20.8833 35.3561 20.6958 35.4073V35.4712C20.8961 35.484 21.0974 35.5543 21.2999 35.6821C21.5023 35.81 21.6717 35.9932 21.808 36.2318C21.9444 36.4705 22.0126 36.7624 22.0126 37.1076C22.0126 37.4357 21.938 37.7308 21.7888 37.9929C21.6397 38.2549 21.4043 38.4627 21.0825 38.6161C20.7608 38.7695 20.3421 38.8462 19.8265 38.8462H17.4614ZM18.254 38.1431H19.8265C20.3442 38.1431 20.7118 38.0429 20.9291 37.8426C21.1486 37.6402 21.2583 37.3952 21.2583 37.1076C21.2583 36.886 21.2018 36.6814 21.0889 36.4939C20.976 36.3043 20.8151 36.153 20.6063 36.0401C20.3975 35.925 20.1504 35.8675 19.8648 35.8675H18.254V38.1431ZM18.254 35.1772H19.7242C19.9629 35.1772 20.1781 35.1303 20.3698 35.0365C20.5637 34.9428 20.7171 34.8107 20.83 34.6402C20.9451 34.4698 21.0026 34.2695 21.0026 34.0394C21.0026 33.7517 20.9025 33.5078 20.7022 33.3075C20.5019 33.1051 20.1844 33.0039 19.7498 33.0039H18.254V35.1772ZM22.9299 38.8462V38.2709L25.0904 35.9059C25.344 35.6289 25.5528 35.3881 25.7168 35.1835C25.8809 34.9769 26.0023 34.783 26.0812 34.6019C26.1621 34.4186 26.2026 34.2269 26.2026 34.0266C26.2026 33.7965 26.1472 33.5973 26.0364 33.4289C25.9278 33.2606 25.7786 33.1306 25.589 33.039C25.3994 32.9474 25.1863 32.9016 24.9498 32.9016C24.6984 32.9016 24.4789 32.9538 24.2914 33.0582C24.106 33.1605 23.9622 33.3043 23.8599 33.4897C23.7598 33.675 23.7097 33.8924 23.7097 34.1416H22.9555C22.9555 33.7581 23.0439 33.4215 23.2207 33.1317C23.3976 32.8419 23.6383 32.6161 23.943 32.4541C24.2499 32.2922 24.594 32.2112 24.9753 32.2112C25.3589 32.2112 25.6987 32.2922 25.9949 32.4541C26.291 32.6161 26.5233 32.8345 26.6916 33.1093C26.8599 33.3842 26.9441 33.6899 26.9441 34.0266C26.9441 34.2674 26.9004 34.5028 26.8131 34.7329C26.7278 34.9609 26.5787 35.2155 26.3656 35.4968C26.1547 35.7759 25.8617 36.1168 25.4867 36.5195L24.0165 38.0919V38.1431H27.0592V38.8462H22.9299Z"
              fill="white"/>
    </symbol>
    <symbol id="epub-icon" viewBox="0 0 52 55">
        <path d="M52 13.4277V50.7031C52 53.0771 50.0592 55 47.6631 55H14.0734C11.6772 55 9.73645 53.0771 9.73645 50.7031V4.29688C9.73645 1.92285 11.6772 0 14.0734 0H38.447L52 13.4277Z"
              fill="#E2E4E1"/>
        <path d="M52 13.4276V22.7948L38.4471 9.36706V0.0858154L38.4904 0.0428467L52 13.4276Z" fill="#CBCCCC"/>
        <path d="M52 13.4277H42.784C40.3878 13.4277 38.4471 11.5049 38.4471 9.13086V0L52 13.4277Z" fill="#B2B3B4"/>
        <path d="M36.6472 46.7391L9.73645 46.7499V27.3495L36.6472 27.3387C38.1435 27.3387 39.3578 28.4882 39.3578 29.9169V44.1718C39.3578 45.5897 38.1435 46.7391 36.6472 46.7391Z"
              fill="#CBCCCC"/>
        <path d="M2.71059 25.792H36.6472C38.1435 25.792 39.3578 26.9951 39.3578 28.4775V42.5176C39.3578 44 38.1435 45.2031 36.6472 45.2031H2.71059C1.21435 45.2031 0 44 0 42.5176V28.4775C0 26.9951 1.21435 25.792 2.71059 25.792Z"
              fill="currentColor"/>
        <path d="M9.06858 38.8462V32.3007H13.0189V33.0039H9.8612V35.2155H12.8143V35.9186H9.8612V38.1431H13.07V38.8462H9.06858ZM14.1775 38.8462V32.3007H16.3891C16.9026 32.3007 17.3224 32.3934 17.6484 32.5788C17.9765 32.762 18.2194 33.0103 18.3771 33.3235C18.5347 33.6367 18.6136 33.9861 18.6136 34.3718C18.6136 34.7574 18.5347 35.1079 18.3771 35.4233C18.2215 35.7386 17.9808 35.99 17.6548 36.1775C17.3288 36.3629 16.9112 36.4556 16.4019 36.4556H14.8167V35.7524H16.3764C16.7279 35.7524 17.0102 35.6917 17.2233 35.5703C17.4364 35.4488 17.5908 35.2848 17.6867 35.0781C17.7847 34.8693 17.8337 34.6338 17.8337 34.3718C17.8337 34.1097 17.7847 33.8753 17.6867 33.6686C17.5908 33.462 17.4353 33.3 17.2201 33.1828C17.0049 33.0635 16.7194 33.0039 16.3636 33.0039H14.9701V38.8462H14.1775ZM23.9158 32.3007H24.7084V36.6345C24.7084 37.082 24.603 37.4815 24.392 37.8331C24.1832 38.1825 23.8881 38.4584 23.5067 38.6608C23.1254 38.8611 22.6779 38.9612 22.1644 38.9612C21.6509 38.9612 21.2035 38.8611 20.8221 38.6608C20.4407 38.4584 20.1445 38.1825 19.9336 37.8331C19.7248 37.4815 19.6204 37.082 19.6204 36.6345V32.3007H20.413V36.5706C20.413 36.8902 20.4833 37.1747 20.6239 37.424C20.7646 37.6711 20.9648 37.8661 21.2248 38.0088C21.4869 38.1495 21.8001 38.2198 22.1644 38.2198C22.5288 38.2198 22.842 38.1495 23.104 38.0088C23.3661 37.8661 23.5664 37.6711 23.7049 37.424C23.8455 37.1747 23.9158 36.8902 23.9158 36.5706V32.3007ZM26.0213 38.8462V32.3007H28.3096C28.7656 32.3007 29.1417 32.3796 29.4378 32.5372C29.734 32.6928 29.9545 32.9027 30.0994 33.1669C30.2443 33.4289 30.3167 33.7198 30.3167 34.0394C30.3167 34.3206 30.2667 34.5529 30.1665 34.7361C30.0685 34.9193 29.9385 35.0642 29.7766 35.1708C29.6168 35.2773 29.4432 35.3561 29.2557 35.4073V35.4712C29.4559 35.484 29.6573 35.5543 29.8597 35.6821C30.0621 35.81 30.2315 35.9932 30.3679 36.2318C30.5042 36.4705 30.5724 36.7624 30.5724 37.1076C30.5724 37.4357 30.4978 37.7308 30.3487 37.9929C30.1995 38.2549 29.9641 38.4627 29.6424 38.6161C29.3206 38.7695 28.902 38.8462 28.3863 38.8462H26.0213ZM26.8139 38.1431H28.3863C28.9041 38.1431 29.2716 38.0429 29.489 37.8426C29.7084 37.6402 29.8182 37.3952 29.8182 37.1076C29.8182 36.886 29.7617 36.6814 29.6488 36.4939C29.5358 36.3043 29.375 36.153 29.1662 36.0401C28.9574 35.925 28.7102 35.8675 28.4247 35.8675H26.8139V38.1431ZM26.8139 35.1772H28.2841C28.5227 35.1772 28.7379 35.1303 28.9297 35.0365C29.1236 34.9428 29.277 34.8107 29.3899 34.6402C29.5049 34.4698 29.5625 34.2695 29.5625 34.0394C29.5625 33.7517 29.4623 33.5078 29.262 33.3075C29.0618 33.1051 28.7443 33.0039 28.3096 33.0039H26.8139V35.1772Z"
              fill="white"/>
    </symbol>
    <symbol id="doc-icon" viewBox="0 0 52 55">
        <path d="M52 13.4277V50.7031C52 53.0771 50.0592 55 47.6631 55H14.0734C11.6772 55 9.73645 53.0771 9.73645 50.7031V4.29688C9.73645 1.92285 11.6772 0 14.0734 0H38.447L52 13.4277Z"
              fill="#E2E4E1"/>
        <path d="M52 13.4276V22.7948L38.4471 9.36706V0.0858154L38.4904 0.0428467L52 13.4276Z" fill="#CBCCCC"/>
        <path d="M52 13.4277H42.784C40.3878 13.4277 38.4471 11.5049 38.4471 9.13086V0L52 13.4277Z" fill="#B2B3B4"/>
        <path d="M36.6472 46.7391L9.73645 46.7499V27.3495L36.6472 27.3387C38.1435 27.3387 39.3578 28.4882 39.3578 29.9169V44.1718C39.3578 45.5897 38.1435 46.7391 36.6472 46.7391Z"
              fill="#CBCCCC"/>
        <path d="M2.71059 25.792H36.6472C38.1435 25.792 39.3578 26.9951 39.3578 28.4775V42.5176C39.3578 44 38.1435 45.2031 36.6472 45.2031H2.71059C1.21435 45.2031 0 44 0 42.5176V28.4775C0 26.9951 1.21435 25.792 2.71059 25.792Z"
              fill="currentColor"/>
        <path d="M12.8255 38.8462H10.8057V32.3007H12.915C13.55 32.3007 14.0933 32.4318 14.545 32.6938C14.9967 32.9538 15.3429 33.3277 15.5837 33.8157C15.8245 34.3014 15.9449 34.8831 15.9449 35.5607C15.9449 36.2425 15.8234 36.8295 15.5805 37.3217C15.3376 37.8117 14.9839 38.1889 14.5194 38.4531C14.0549 38.7152 13.4903 38.8462 12.8255 38.8462ZM11.5983 38.1431H12.7744C13.3156 38.1431 13.7641 38.0387 14.1199 37.8299C14.4758 37.621 14.741 37.3238 14.9157 36.9382C15.0905 36.5525 15.1778 36.0934 15.1778 35.5607C15.1778 35.0323 15.0915 34.5774 14.9189 34.196C14.7464 33.8125 14.4885 33.5184 14.1455 33.3139C13.8025 33.1072 13.3753 33.0039 12.8639 33.0039H11.5983V38.1431ZM22.5271 35.5735C22.5271 36.2638 22.4025 36.8604 22.1532 37.3632C21.9039 37.8661 21.5619 38.2539 21.1273 38.5266C20.6926 38.7993 20.1962 38.9357 19.6379 38.9357C19.0797 38.9357 18.5832 38.7993 18.1486 38.5266C17.7139 38.2539 17.3719 37.8661 17.1227 37.3632C16.8734 36.8604 16.7487 36.2638 16.7487 35.5735C16.7487 34.8831 16.8734 34.2865 17.1227 33.7837C17.3719 33.2809 17.7139 32.8931 18.1486 32.6203C18.5832 32.3476 19.0797 32.2112 19.6379 32.2112C20.1962 32.2112 20.6926 32.3476 21.1273 32.6203C21.5619 32.8931 21.9039 33.2809 22.1532 33.7837C22.4025 34.2865 22.5271 34.8831 22.5271 35.5735ZM21.7601 35.5735C21.7601 35.0067 21.6653 34.5284 21.4756 34.1385C21.2881 33.7485 21.0335 33.4534 20.7118 33.2532C20.3922 33.0529 20.0342 32.9527 19.6379 32.9527C19.2416 32.9527 18.8826 33.0529 18.5609 33.2532C18.2413 33.4534 17.9866 33.7485 17.797 34.1385C17.6095 34.5284 17.5158 35.0067 17.5158 35.5735C17.5158 36.1402 17.6095 36.6186 17.797 37.0085C17.9866 37.3984 18.2413 37.6935 18.5609 37.8938C18.8826 38.0941 19.2416 38.1942 19.6379 38.1942C20.0342 38.1942 20.3922 38.0941 20.7118 37.8938C21.0335 37.6935 21.2881 37.3984 21.4756 37.0085C21.6653 36.6186 21.7601 36.1402 21.7601 35.5735ZM28.8569 34.3462H28.0643C28.0174 34.1182 27.9354 33.9179 27.8182 33.7453C27.7032 33.5728 27.5625 33.4279 27.3963 33.3107C27.2323 33.1914 27.0501 33.1019 26.8498 33.0422C26.6495 32.9826 26.4407 32.9527 26.2234 32.9527C25.8271 32.9527 25.4681 33.0529 25.1463 33.2532C24.8267 33.4534 24.5721 33.7485 24.3825 34.1385C24.195 34.5284 24.1012 35.0067 24.1012 35.5735C24.1012 36.1402 24.195 36.6186 24.3825 37.0085C24.5721 37.3984 24.8267 37.6935 25.1463 37.8938C25.4681 38.0941 25.8271 38.1942 26.2234 38.1942C26.4407 38.1942 26.6495 38.1644 26.8498 38.1047C27.0501 38.0451 27.2323 37.9566 27.3963 37.8394C27.5625 37.7201 27.7032 37.5742 27.8182 37.4016C27.9354 37.2269 28.0174 37.0266 28.0643 36.8007H28.8569C28.7973 37.1353 28.6886 37.4346 28.5309 37.6988C28.3733 37.963 28.1772 38.1878 27.9429 38.3732C27.7085 38.5564 27.4453 38.696 27.1534 38.7919C26.8637 38.8877 26.5537 38.9357 26.2234 38.9357C25.6652 38.9357 25.1687 38.7993 24.7341 38.5266C24.2994 38.2539 23.9574 37.8661 23.7081 37.3632C23.4588 36.8604 23.3342 36.2638 23.3342 35.5735C23.3342 34.8831 23.4588 34.2865 23.7081 33.7837C23.9574 33.2809 24.2994 32.8931 24.7341 32.6203C25.1687 32.3476 25.6652 32.2112 26.2234 32.2112C26.5537 32.2112 26.8637 32.2592 27.1534 32.3551C27.4453 32.4509 27.7085 32.5916 27.9429 32.7769C28.1772 32.9602 28.3733 33.1839 28.5309 33.4481C28.6886 33.7102 28.7973 34.0095 28.8569 34.3462Z"
              fill="white"/>
    </symbol>
    <symbol id="maket-icon" viewBox="0 0 52 55">
        <path d="M52 13.4277V50.7031C52 53.0771 50.0592 55 47.6631 55H14.0734C11.6772 55 9.73645 53.0771 9.73645 50.7031V4.29688C9.73645 1.92285 11.6772 0 14.0734 0H38.447L52 13.4277Z"
              fill="#E2E4E1"/>
        <path d="M52 13.4277V22.7949L38.4471 9.36713V0.0858765L38.4904 0.0429077L52 13.4277Z" fill="#CBCCCC"/>
        <path d="M52 13.4277H42.784C40.3878 13.4277 38.4471 11.5049 38.4471 9.13086V0L52 13.4277Z" fill="#B2B3B4"/>
        <path d="M36.6472 46.7392L9.73645 46.7499V27.3495L36.6472 27.3388C38.1435 27.3388 39.3578 28.4882 39.3578 29.9169V44.1718C39.3578 45.5898 38.1435 46.7392 36.6472 46.7392Z"
              fill="#CBCCCC"/>
        <path d="M2.71059 25.792H36.6472C38.1435 25.792 39.3578 26.9951 39.3578 28.4775V42.5176C39.3578 44 38.1435 45.2031 36.6472 45.2031H2.71059C1.21435 45.2031 0 44 0 42.5176V28.4775C0 26.9951 1.21435 25.792 2.71059 25.792Z"
              fill="currentColor"/>
        <path d="M7.76176 32.7553H9.08918L10.4912 36.1757H10.5508L11.9528 32.7553H13.2802V37.8462H12.2362V34.5326H12.1939L10.8765 37.8213H10.1655L8.84805 34.5202H8.8058V37.8462H7.76176V32.7553ZM14.8345 37.8462H13.6811L15.4386 32.7553H16.8256L18.5806 37.8462H17.4272L16.152 33.9186H16.1122L14.8345 37.8462ZM14.7624 35.8451H17.4869V36.6853H14.7624V35.8451ZM22.0633 37.8462L20.4276 35.6761H20.0597V37.8462H18.9834V32.7553H20.0597V34.7887H20.276L21.9663 32.7553H23.3062L21.32 35.1168L23.3981 37.8462H22.0633ZM23.7294 37.8462V32.7553H27.1598V33.6427H24.8058V34.8558H26.9833V35.7432H24.8058V36.9588H27.1698V37.8462H23.7294ZM27.6117 33.6427V32.7553H31.7928V33.6427H30.2342V37.8462H29.1703V33.6427H27.6117Z"
              fill="white"/>
    </symbol>
    <symbol id="headphones-icon" viewBox="0 0 37 40">
        <path d="M35.8267 29.27V19.975C35.8267 9.70803 28.2332 1.38501 18.8662 1.38501C9.49922 1.38501 1.90576 9.70803 1.90576 19.975V31.129"
              stroke="currentColor" stroke-width="2"/>
        <path d="M12.0821 25.8998C12.0821 24.8247 12.0821 24.2871 11.965 23.8601C11.6942 22.8728 10.9874 22.124 10.1075 21.8922C9.72697 21.7921 9.25945 21.8343 8.32441 21.9189C6.70171 22.0658 5.89037 22.1392 5.2289 22.4197C3.70364 23.0663 2.53991 24.5098 2.09758 26.3038C1.90576 27.0817 1.90576 28.0148 1.90576 29.8807V30.2255C1.90576 32.1386 1.90576 33.0952 2.11446 33.9045C2.52404 35.493 3.50344 36.8069 4.80826 37.5184C5.47311 37.8809 6.29737 38.0301 7.94588 38.3285C9.03988 38.5265 9.58688 38.6256 10.0296 38.5256C10.9018 38.3287 11.6212 37.6239 11.9269 36.6671C12.0821 36.1814 12.0821 35.5465 12.0821 34.277V25.8998Z"
              stroke="currentColor" stroke-width="2"/>
        <path d="M25.6504 25.8998C25.6504 24.8247 25.6504 24.2871 25.7674 23.8601C26.0381 22.8728 26.745 22.124 27.6249 21.8922C28.0055 21.7921 28.473 21.8343 29.408 21.9189C31.0308 22.0658 31.842 22.1392 32.5036 22.4197C34.0289 23.0663 35.1925 24.5098 35.6349 26.3038C35.8267 27.0817 35.8267 28.0148 35.8267 29.8807V30.2255C35.8267 32.1386 35.8267 33.0952 35.6181 33.9045C35.2085 35.493 34.229 36.8069 32.9242 37.5184C32.2594 37.8809 31.4351 38.0301 29.7865 38.3285C28.6926 38.5265 28.1456 38.6256 27.7029 38.5256C26.8307 38.3287 26.1112 37.6239 25.8056 36.6671C25.6504 36.1814 25.6504 35.5465 25.6504 34.277V25.8998Z"
              stroke="currentColor" stroke-width="2"/>
        <path d="M18.8662 9.75061V19.0456" stroke="currentColor" stroke-width="2" stroke-linecap="round"/>
        <path d="M23.9544 12.539V16.257" stroke="currentColor" stroke-width="2" stroke-linecap="round"/>
        <path d="M13.778 12.539V16.257" stroke="currentColor" stroke-width="2" stroke-linecap="round"/>
    </symbol>
    <symbol id="headphones-icon-2" viewBox="0 0 13 15">
        <path d="M6.23135 14.4133H6.17595C5.71058 14.3912 5.30061 14.0588 5.17873 13.5934C5.03469 13.0394 5.32278 12.4743 5.86571 12.2748C5.98759 12.2305 6.12055 12.2084 6.24243 12.2084C6.66348 12.2084 7.05129 12.4521 7.22857 12.8289C7.27289 12.9175 7.3283 12.9286 7.36154 12.9286H7.40586C9.27842 12.6183 10.6634 11.5989 11.5277 9.90367C11.5388 9.89259 11.5388 9.87043 11.5499 9.84827L11.5831 9.75963L11.4834 9.77071L11.4169 9.78179C11.3726 9.78179 11.3504 9.79287 11.3172 9.79287H11.2285C10.4086 9.79287 9.74378 9.12805 9.74378 8.30812V6.77905C9.74378 5.95911 10.4086 5.2943 11.2285 5.2943H11.3172C11.4169 5.2943 11.5055 5.32754 11.6053 5.3497C11.6496 5.36078 11.705 5.37186 11.7493 5.38294L11.7825 5.39402L11.8712 5.42726L11.849 5.32754C11.3837 3.37742 9.47786 1.38298 6.7632 1.3165H6.61916C3.84911 1.3165 1.88791 3.32202 1.37822 5.30538L1.35605 5.39402L1.4447 5.37186C1.47794 5.36078 1.51118 5.36078 1.54442 5.3497C1.62198 5.32754 1.68846 5.30538 1.76602 5.2943C1.84358 5.28322 1.93223 5.27214 2.00979 5.27214C2.70784 5.27214 3.3505 5.80399 3.4613 6.49096C3.47238 6.5796 3.48346 6.69041 3.48346 6.80121V8.29704C3.48346 9.01725 3.00701 9.6045 2.29787 9.75963C2.19815 9.78179 2.09843 9.79287 1.99871 9.79287C1.27849 9.79287 0.658001 9.26102 0.536118 8.56296C0.525038 8.46324 0.513958 8.38568 0.513958 8.30812V7.86491C0.513958 7.4771 0.502878 7.07821 0.513958 6.69041C0.558279 4.74029 1.36714 3.13365 2.89621 1.92591C3.66074 1.3165 4.55824 0.928688 5.55546 0.751404C6.04299 0.662763 6.55268 0.629522 7.04021 0.673843C7.11777 0.684923 7.20641 0.684923 7.28398 0.696003C8.14823 0.784645 8.95709 1.05057 9.6773 1.4827C11.1288 2.33588 12.0817 3.59902 12.5249 5.21673C12.6579 5.69318 12.7244 6.20288 12.7244 6.73473V8.29704C12.7244 8.52972 12.669 8.75133 12.5692 8.98401C12.536 9.05049 12.5138 9.12805 12.5028 9.20562C12.4917 9.22778 12.4917 9.26102 12.4806 9.28318C11.8379 11.4438 10.0651 13.0726 7.86015 13.5269C7.72718 13.5491 7.58314 13.5823 7.40586 13.6045C7.31722 13.6155 7.29506 13.6709 7.27289 13.7153C7.09561 14.1252 6.69672 14.4133 6.23135 14.4133ZM11.2507 5.93695H11.1621C10.7299 5.98127 10.4197 6.33584 10.4197 6.75689V8.29704C10.4197 8.36352 10.4308 8.43 10.4418 8.49648C10.5305 8.87321 10.8629 9.13914 11.2396 9.13914C11.2729 9.13914 11.3061 9.13914 11.3393 9.12805C11.7715 9.07265 12.0817 8.72917 12.0817 8.30812V6.76797C12.0817 6.70149 12.0706 6.635 12.0596 6.5796C11.9598 6.20288 11.6274 5.93695 11.2507 5.93695ZM1.99871 5.93695C1.53334 5.93695 1.17877 6.3026 1.17877 6.76797V8.28596C1.17877 8.35244 1.18985 8.41892 1.20093 8.47432C1.28957 8.85105 1.62198 9.11697 1.99871 9.11697H2.08735C2.51948 9.07265 2.82972 8.71809 2.82972 8.29704V6.76797C2.81864 6.3026 2.46408 5.93695 1.99871 5.93695Z"
              fill="currentColor"/>
    </symbol>
    <symbol id="headphones-icon-3" viewBox="0 0 42 41">
        <path d="M40.1999 29.8719V20.5778C40.1999 10.3119 31.46 1.98975 20.6791 1.98975C9.89799 1.98975 1.1582 10.3119 1.1582 20.5778V31.7307"
              stroke="#666666" stroke-width="2"/>
        <path d="M12.8707 26.502C12.8707 25.4271 12.8707 24.8895 12.736 24.4626C12.4244 23.4753 11.6108 22.7266 10.5981 22.4948C10.1601 22.3948 9.62202 22.437 8.54581 22.5216C6.67816 22.6684 5.74434 22.7419 4.983 23.0223C3.22749 23.6688 1.88809 25.1122 1.37898 26.906C1.1582 27.6839 1.1582 28.6168 1.1582 30.4825V30.8273C1.1582 32.7402 1.1582 33.6967 1.39841 34.5059C1.86982 36.0942 2.99707 37.408 4.49887 38.1194C5.26408 38.4819 6.21278 38.6311 8.11015 38.9295C9.3693 39.1274 9.99887 39.2265 10.5084 39.1265C11.5123 38.9297 12.3403 38.225 12.6921 37.2683C12.8707 36.7826 12.8707 36.1478 12.8707 34.8784V26.502Z"
              stroke="#666666" stroke-width="2"/>
        <path d="M28.4873 26.502C28.4873 25.4271 28.4873 24.8895 28.622 24.4626C28.9336 23.4753 29.7472 22.7266 30.7599 22.4948C31.198 22.3948 31.736 22.437 32.8122 22.5216C34.6799 22.6684 35.6136 22.7419 36.3751 23.0223C38.1306 23.6688 39.4699 25.1122 39.979 26.906C40.1998 27.6839 40.1998 28.6168 40.1998 30.4825V30.8273C40.1998 32.7402 40.1998 33.6967 39.9597 34.5059C39.4883 36.0942 38.361 37.408 36.8592 38.1194C36.094 38.4819 35.1453 38.6311 33.2479 38.9295C31.9888 39.1274 31.3592 39.2265 30.8497 39.1265C29.8458 38.9297 29.0177 38.225 28.6659 37.2683C28.4873 36.7826 28.4873 36.1478 28.4873 34.8784V26.502Z"
              stroke="#666666" stroke-width="2"/>
        <path d="M20.679 10.3544V19.6485" stroke="#666666" stroke-width="2" stroke-linecap="round"/>
        <path d="M26.5354 13.1426V16.8602" stroke="#666666" stroke-width="2" stroke-linecap="round"/>
        <path d="M14.8228 13.1426V16.8602" stroke="#666666" stroke-width="2" stroke-linecap="round"/>
    </symbol>
    <symbol id="book-icon" viewBox="0 0 38 38">
        <path d="M37.0652 0.980994C37.0652 0.448013 36.5362 0.0154487 35.8844 0.0154487H28.0707C28.0392 0.0128739 28.0124 0 27.9793 0H15.4518C15.4188 0 15.392 0.0128739 15.3605 0.0154487H4.71284C4.66876 0.0141613 4.6168 0.0128739 4.56485 0.0128739C2.1387 0.0128739 0.161249 1.58349 0.0683594 3.54806V3.55449V34.9527C0.246267 36.6663 1.9907 38 4.11772 38C4.21691 38 4.31452 37.9974 4.41213 37.991H4.39954H35.8876C36.5394 37.991 37.0684 37.5584 37.0684 37.0254C37.0684 36.4925 36.5394 36.0599 35.8876 36.0599H4.71442C4.67821 36.0612 4.6357 36.0625 4.59319 36.0625C3.46434 36.0625 2.53702 35.3583 2.43154 34.4571V34.4494V32.8749C2.43154 32.284 3.35099 31.7664 4.39639 31.7664L35.8876 31.8398C36.2135 31.8398 36.5094 31.7317 36.722 31.5566C36.7488 31.5347 36.7614 31.5038 36.785 31.4794C36.859 31.4137 36.9219 31.3377 36.9707 31.2566L36.9739 31.2515C36.9991 31.1884 37.0196 31.1163 37.0274 31.0404V31.0365C37.0447 30.9914 37.0589 30.9374 37.0668 30.8807V30.8769V30.8743L37.0652 0.980994ZM34.7036 29.91L10.3004 29.8534V1.94654H14.2695V15.3972V15.3985C14.2695 15.9315 14.7985 16.3628 15.4487 16.3628C15.7337 16.3628 15.995 16.2804 16.1981 16.1426L16.1965 16.1439L21.7227 12.4504L27.2394 16.0602C27.4393 16.1916 27.6959 16.2714 27.9762 16.2714C28.628 16.2714 29.157 15.8388 29.1586 15.3058V1.94654H34.702L34.7036 29.91ZM26.7985 1.94654V13.2962L22.4532 10.4536C22.2532 10.321 21.9966 10.2412 21.7164 10.2412C21.4314 10.2412 21.1701 10.3236 20.9654 10.4626L20.967 10.4614L16.6311 13.3606V1.94654H26.7985ZM2.42839 30.1868V3.55578C2.53387 2.64817 3.46277 1.94396 4.59161 1.94396C4.63412 1.94396 4.67663 1.94525 4.71757 1.94654H4.71127H7.93879V29.8469L4.39639 29.8392C3.68318 29.8418 3.00619 29.9692 2.39847 30.1971L2.42839 30.1868Z"
              fill="#F86401"/>
    </symbol>
    <symbol id="slider-arrow-icon" viewBox="0 0 11 30">
        <path d="M10.6699 17.6685L8.75972 17.6685L8.75972 22.9108L6.35309 18.9069L3.94647 14.903L6.3531 10.8991L8.75972 6.89527L8.75972 11.9077L10.6699 11.9077L10.6699 0.0107422L5.74794 7.39942L0.82593 14.7881L5.74793 22.1768L10.6699 29.5655L10.6699 17.6685Z"
              fill="currentColor"/>
    </symbol>
    <symbol id="rutube-icon" viewBox="0 0 36 37">
        <circle cx="18" cy="18.5991" r="18" fill="currentColor"/>
        <path d="M22.0411 13.095H8.50447V26.6571H12.2721V22.2449H19.4916L22.7856 26.6571H27.0043L23.3721 22.2246C24.5002 22.062 25.3123 21.6756 25.8087 21.0656C26.305 20.4556 26.5532 19.4796 26.5532 18.1783V17.1616C26.5532 16.389 26.4631 15.779 26.3051 15.3114C26.1471 14.8437 25.8763 14.437 25.4928 14.071C25.0867 13.7254 24.6356 13.4814 24.0941 13.3188C23.5526 13.1765 22.8757 13.095 22.0411 13.095ZM21.432 19.256H12.2721V16.0839H21.432C21.9507 16.0839 22.3117 16.1652 22.4922 16.3076C22.6727 16.4499 22.7856 16.7142 22.7856 17.1006V18.2393C22.7856 18.6459 22.6727 18.9102 22.4922 19.0525C22.3117 19.1948 21.9508 19.2558 21.432 19.2558V19.256Z"
              fill="white"/>
        <path d="M27.0049 11.5002C28.1082 11.5002 29.0032 10.6692 29.0032 9.64418C29.0032 8.61913 28.1082 7.78821 27.0049 7.78821C25.9008 7.78821 25.0057 8.61913 25.0057 9.64418C25.0057 10.6692 25.9008 11.5002 27.0049 11.5002Z"
              fill="white"/>
    </symbol>
    <symbol id="vk-icon" viewBox="0 0 35 35">
        <path d="M17.5 0C7.835 0 0 7.835 0 17.5S7.835 35 17.5 35 35 27.165 35 17.5 27.165 0 17.5 0Zm6.73 19.744s1.548 1.528 1.929 2.237c.01.014.016.029.02.036.155.26.191.463.115.614-.128.252-.565.376-.715.387h-2.734c-.19 0-.587-.05-1.068-.381-.37-.259-.735-.684-1.09-1.097-.531-.617-.99-1.149-1.453-1.149a.557.557 0 0 0-.174.028c-.35.113-.798.612-.798 1.943 0 .415-.328.654-.56.654H16.45c-.427 0-2.649-.15-4.617-2.226-2.41-2.543-4.58-7.643-4.598-7.69-.137-.33.146-.507.454-.507h2.762c.368 0 .488.224.572.423.099.231.46 1.152 1.052 2.187.96 1.688 1.55 2.374 2.022 2.374a.547.547 0 0 0 .253-.066c.616-.343.501-2.54.474-2.995 0-.086-.002-.983-.317-1.413-.226-.312-.61-.43-.844-.474.094-.13.219-.236.362-.308.423-.211 1.185-.242 1.942-.242h.421c.82.01 1.032.063 1.329.138.602.144.614.532.561 1.861-.016.378-.032.804-.032 1.307 0 .11-.006.226-.006.35-.018.677-.04 1.444.438 1.76.062.039.134.06.207.06.166 0 .666 0 2.018-2.32.418-.748.78-1.524 1.085-2.323.027-.048.108-.194.202-.25a.485.485 0 0 1 .226-.053h3.247c.354 0 .596.053.642.19.08.217-.015.878-1.497 2.885l-.662.874c-1.343 1.76-1.343 1.85.084 3.186Z"
              fill="currentColor"/>
    </symbol>
    <symbol id="social-network-icon" viewBox="0 0 35 35">
        <path d="M34.228 16.725h.008a.763.763 0 0 0 .761-.834A17.546 17.546 0 0 0 19.112.002a.764.764 0 0 0-.834.77c.133 11.214 1.613 15.796 15.95 15.953Zm0 1.55c-14.337.156-15.816 4.738-15.949 15.952a.764.764 0 0 0 .834.77 17.544 17.544 0 0 0 15.884-15.889.763.763 0 0 0-.2-.588.806.806 0 0 0-.57-.245ZM15.837.006C7.426.797.767 7.478.004 15.893a.763.763 0 0 0 .76.833h.01c14.29-.165 15.765-4.744 15.9-15.95a.766.766 0 0 0-.837-.77ZM.773 18.274c-.237-.027-.424.086-.57.245a.766.766 0 0 0-.2.588c.763 8.414 7.423 15.095 15.834 15.886a.765.765 0 0 0 .836-.77c-.135-11.205-1.61-15.785-15.9-15.95Z"
              fill="currentColor"/>
    </symbol>
    <symbol id="youtube-icon" viewBox="0 0 35 35">
        <path d="m15.169 20.87 5.729-3.363-5.73-3.363v6.726Z" fill="currentColor"/>
        <path d="M17.5 0C7.834 0 0 7.834 0 17.5S7.834 35 17.5 35 35 27.166 35 17.5 27.166 0 17.5 0Zm8.75 20.63c0 3.015-3.015 3.015-3.015 3.015h-11.47c-3.015 0-3.015-3.014-3.015-3.014v-6.255c0-3.015 3.015-3.015 3.015-3.015h11.47c3.015 0 3.015 3.015 3.015 3.015v6.255Z"
              fill="currentColor"/>
    </symbol>
    <symbol id="share-icon" viewBox="0 0 26 25">
        <path d="M13 0C6.1 0 .5 5.6.5 12.5S6.1 25 13 25s12.5-5.6 12.5-12.5S19.9 0 13 0ZM8.812 15.963a.94.94 0 0 1-.874.612.752.752 0 0 1-.325-.063 4.585 4.585 0 0 1-2.4-2.075c-1.25-2.25-.476-5.187 1.712-6.55L9.85 6.075a4.532 4.532 0 0 1 3.537-.55c1.2.313 2.213 1.1 2.825 2.2 1.25 2.25.476 5.188-1.712 6.55l-.325.237a.95.95 0 0 1-1.313-.212.95.95 0 0 1 .213-1.313l.388-.274c1.4-.875 1.875-2.688 1.112-4.075a2.678 2.678 0 0 0-1.65-1.3 2.602 2.602 0 0 0-2.075.324L7.9 9.489c-1.35.837-1.825 2.65-1.063 4.05.313.562.813 1 1.413 1.224a.937.937 0 0 1 .563 1.2Zm10.338 1.1-2.925 1.812a4.488 4.488 0 0 1-3.538.538 4.479 4.479 0 0 1-2.812-2.2c-1.25-2.25-.475-5.188 1.713-6.55l.325-.238a.95.95 0 0 1 1.312.212.95.95 0 0 1-.213 1.313l-.387.275c-1.4.875-1.875 2.688-1.113 4.075.363.65.95 1.113 1.65 1.3.7.188 1.438.075 2.075-.325l2.926-1.812c1.35-.838 1.825-2.65 1.062-4.05-.313-.563-.813-1-1.413-1.226a.92.92 0 0 1-.55-1.2.925.925 0 0 1 1.2-.55 4.585 4.585 0 0 1 2.4 2.075c1.238 2.25.476 5.188-1.712 6.55Z"
              fill="currentColor"/>
    </symbol>
    <symbol id="whats-app-icon" viewBox="0 0 26 25">
        <path fill-rule="evenodd" clip-rule="evenodd"
              d="M20.276 17.651c-.301.853-1.498 1.559-2.453 1.765-.654.139-1.507.248-4.38-.942-3.226-1.337-7.705-6.098-7.705-9.266 0-1.613.93-3.491 2.556-3.491.782 0 .955.015 1.212.632.301.728 1.037 2.521 1.124 2.705.361.754-.368 1.195-.896 1.852-.169.197-.36.411-.146.779.212.36.947 1.558 2.027 2.52 1.395 1.242 2.526 1.639 2.931 1.808.302.125.662.095.882-.14.278-.3.624-.8.977-1.293.249-.353.565-.397.896-.272.224.077 3.068 1.398 3.188 1.61.088.153.088.88-.213 1.733ZM13.002 0h-.006C6.105 0 .5 5.607.5 12.5c0 2.733.881 5.27 2.38 7.326l-1.557 4.645 4.803-1.535A12.403 12.403 0 0 0 13.002 25C19.895 25 25.5 19.393 25.5 12.5S19.894 0 13.002 0Z"
              fill="currentColor"/>
    </symbol>
    <symbol id="whats-app-icon-2" viewBox="0 0 14 14">
        <path d="M11.6098 2.48855C11.0112 1.88417 10.2983 1.40504 9.51258 1.0791C8.72688 0.753157 7.88414 0.586937 7.03352 0.590133C3.46929 0.590133 0.564533 3.49408 0.561268 7.05912C0.561268 8.20094 0.859987 9.31175 1.42396 10.2952L0.509033 13.6489L3.94022 12.7495C4.88901 13.2671 5.9527 13.538 7.03352 13.5371H7.03678C10.6018 13.5371 13.5058 10.6331 13.509 7.06483C13.5098 6.21443 13.3423 5.37228 13.0162 4.58688C12.6901 3.80149 12.2126 3.08835 11.6098 2.48855ZM7.03352 12.4418C6.06976 12.441 5.12386 12.1817 4.29444 11.6909L4.09856 11.5734L2.06303 12.1071L2.6066 10.1214L2.47927 9.91654C1.94044 9.05982 1.65547 8.06793 1.65739 7.05585C1.65739 4.09641 4.07081 1.68217 7.03678 1.68217C7.74338 1.6809 8.44323 1.81951 9.096 2.09001C9.74877 2.3605 10.3415 2.75753 10.8401 3.2582C11.3404 3.757 11.737 4.34987 12.007 5.00263C12.2771 5.65539 12.4153 6.35514 12.4137 7.06157C12.4105 10.0316 9.99704 12.4418 7.03352 12.4418ZM9.98398 8.41478C9.8232 8.33398 9.02906 7.94303 8.8797 7.88753C8.73116 7.83448 8.62261 7.80673 8.5165 7.96833C8.40795 8.12912 8.09781 8.49558 8.00476 8.60087C7.91172 8.70942 7.81541 8.72166 7.65381 8.64168C7.49302 8.56006 6.97149 8.3903 6.35446 7.83775C5.87292 7.40926 5.55053 6.87874 5.45422 6.71796C5.36118 6.55635 5.44525 6.46984 5.52605 6.38904C5.59705 6.31722 5.68683 6.19969 5.76763 6.10664C5.84925 6.0136 5.87618 5.94504 5.92924 5.83731C5.98229 5.72794 5.95699 5.6349 5.91699 5.55409C5.87618 5.47329 5.5538 4.67589 5.4175 4.35432C5.28691 4.03683 5.15387 4.0809 5.0543 4.07682C4.96125 4.07111 4.8527 4.07111 4.74415 4.07111C4.66219 4.0732 4.58154 4.09218 4.50724 4.12687C4.43295 4.16155 4.36662 4.2112 4.3124 4.2727C4.16385 4.43431 3.74842 4.82525 3.74842 5.62265C3.74842 6.42005 4.3279 7.18644 4.40952 7.29499C4.48951 7.40354 5.54727 9.03507 7.17063 9.73698C7.55423 9.9043 7.85622 10.0031 8.09209 10.0781C8.47978 10.2022 8.82991 10.1834 9.10904 10.1434C9.41919 10.0961 10.0648 9.75167 10.2011 9.37378C10.3349 8.99508 10.3349 8.67188 10.2941 8.60413C10.2541 8.53557 10.1456 8.49558 9.98398 8.41478Z"
              fill="currentColor"/>
    </symbol>
    <symbol id="telegram-icon" viewBox="0 0 35 35">
        <path d="M17.5 0C7.836 0 0 7.836 0 17.5S7.836 35 17.5 35 35 27.164 35 17.5 27.164 0 17.5 0Zm8.595 11.989-2.872 13.533c-.212.96-.784 1.193-1.581.741l-4.375-3.223-2.11 2.033c-.203.263-.52.43-.874.43h-.007l.31-4.453 8.109-7.324c.35-.31-.08-.487-.544-.177l-10.018 6.31-4.316-1.348c-.934-.296-.96-.934.197-1.392l16.867-6.5c.784-.287 1.467.186 1.213 1.371l.001-.001Z"
              fill="currentColor"/>
    </symbol>
    <symbol id="telegram-icon-2" viewBox="0 0 13 14">
        <path fill-rule="evenodd" clip-rule="evenodd"
              d="M12.984 2.17002C13.1711 1.17094 12.2753 0.340673 11.4069 0.708244L0.761834 5.21384C-0.207965 5.62431 -0.251177 7.10993 0.692794 7.58717L3.01099 8.75931L4.11379 12.9876C4.17107 13.2073 4.33017 13.3773 4.53201 13.4346C4.73385 13.4919 4.9483 13.4279 5.09574 13.2664L6.79449 11.4054L9.17411 13.3606C9.86486 13.9281 10.8597 13.5147 11.0332 12.5881L12.984 2.17002ZM1.18601 6.41652L11.8311 1.91094L9.88028 12.3291L7.09237 10.0385C6.8581 9.84596 6.53026 9.87149 6.32317 10.0984L5.59558 10.8954L5.8142 9.5783L10.0978 4.88571C10.3063 4.65734 10.3283 4.29522 10.1493 4.03855C9.97038 3.78189 9.64571 3.7099 9.38973 3.87013L3.47397 7.57331L1.18601 6.41652ZM4.19527 8.60678L4.55211 9.97503L4.68912 9.14953C4.71053 9.02053 4.76735 8.90172 4.85199 8.80901L6.15834 7.37798L4.19527 8.60678Z"
              fill="currentColor"/>
    </symbol>
    <symbol id="sort-icon-2" viewBox="0 0 50 39">
        <line x1="12.8568" y1="10.104" x2="37.1432" y2="10.104" stroke="#6699CC" stroke-width="2.5"
              stroke-linecap="round"/>
        <path d="M12.7916 19.0996H30.6492" stroke="#6699CC" stroke-width="2.5" stroke-linecap="round"/>
        <path d="M12.7916 27.646H21.7204" stroke="#6699CC" stroke-width="2.5" stroke-linecap="round"/>
    </symbol>
    <symbol id="filter-icon" viewBox="0 0 50 39">
        <path d="M10.5427 19.5H40.5427" stroke="#6699CC" stroke-width="2" stroke-linecap="round"/>
        <path d="M10.5427 10.4849H40.5427" stroke="#6699CC" stroke-width="2" stroke-linecap="round"/>
        <path d="M10.5823 27.7817H40.5823" stroke="#6699CC" stroke-width="2" stroke-linecap="round"/>
        <circle cx="32.2838" cy="10.485" r="3.48206" fill="#6699CC"/>
        <circle cx="18.9027" cy="19.5001" r="3.48206" fill="#6699CC"/>
        <circle cx="33.8815" cy="27.7819" r="3.48206" fill="#6699CC"/>
    </symbol>
    <symbol id="star-up-icon" viewBox="0 0 34 36">
        <path fill-rule="evenodd" clip-rule="evenodd"
              d="M17.065 29.9442V28.3115L17.4461 28.5948L22.2966 32.1444L20.4451 26.4061L20.2981 25.9411L20.6799 25.6688L25.5169 22.1082L19.5336 22.1081H19.0644L18.9178 21.6545L17.065 15.916V11.6524L17.6931 13.5802L19.1082 18.0031L20.0746 15.0203L21.702 20.089L22.4196 17.8329L23.3741 20.7923H27.5271H29.5368L27.9089 21.9942L24.5529 24.4558L25.4614 27.2675L23.5644 25.8726L25.2946 31.2715L22.7906 29.4337L24.1484 33.6756L24.7772 35.6031L23.1499 34.4116L17.065 29.9442ZM17.065 11.6525V15.916L15.2355 21.6545L15.0899 22.1082H14.6067H8.63377L13.4725 25.6689L13.8545 25.9412L13.7097 26.4061L11.8561 32.1445L16.6836 28.5949L17.065 28.3115V29.9443L11.0042 34.4118L9.37621 35.6032L9.99389 33.6757L12.3176 26.451L6.24254 21.9944L4.61609 20.7925H6.6263H14.1358L16.4471 13.5804L17.065 11.6525Z"
              fill="currentColor"/>
        <path fill-rule="evenodd" clip-rule="evenodd"
              d="M13.4897 8.53272H7.60908L17.2116 2.85514L26.8153 8.53272H20.733V10.1808H33.3768L17.0967 0.555634L0.810852 10.1808H13.4897V8.53272Z"
              fill="currentColor"/>
    </symbol>
    <symbol id="star-growth-icon" viewBox="0 0 38 37">
        <path fill-rule="evenodd" clip-rule="evenodd"
              d="M28.3703 32.9525L27.1276 29.1915L30.4543 26.9112L26.3614 26.8846L25.1165 23.1127L25.0856 23.2291V25.5468L25.0944 25.4996L25.7845 27.5983L28.081 27.6087L26.2163 28.9008L26.9068 31.0072L25.0856 29.7027V30.6234L28.3703 32.9525ZM25.0857 23.2291L23.8289 26.8635L19.7333 26.8416L23.0325 29.1692L21.7359 32.9168L25.0712 30.6134L25.0857 30.6234V29.7027L25.0712 29.6922L23.1986 30.9861L23.9274 28.8874L22.0764 27.5719L24.3734 27.5856L25.0857 25.5468V23.2291Z"
              fill="currentColor"/>
        <path fill-rule="evenodd" clip-rule="evenodd"
              d="M15.8438 23.9747L14.6012 20.2136L17.9334 17.9223L13.8412 17.8969L12.5956 14.1353L12.562 14.2409V16.5588L12.5726 16.5214L13.2621 18.6203L15.5569 18.6424L13.6948 19.9235L14.3847 22.0311L12.562 20.7252V21.6467L15.8438 23.9747ZM12.562 14.2409L11.3047 17.8745L7.2121 17.8503L10.5065 20.1926L9.21513 23.9399L12.5502 21.6365L12.5619 21.6468L12.562 20.7252L12.536 20.714L10.6773 22.0087L11.4013 19.9109L9.55538 18.5942L11.8483 18.6203L12.562 16.5588V14.2409Z"
              fill="currentColor"/>
        <path fill-rule="evenodd" clip-rule="evenodd"
              d="M25.4202 16.2451L26.8076 17.5599L11.8246 32.1484L10.4463 30.8322L25.4202 16.2451Z"
              fill="currentColor"/>
        <path fill-rule="evenodd" clip-rule="evenodd"
              d="M15.2782 10.8945H9.70411L18.8071 5.75737L27.9111 10.8945L22.1455 10.8945V12.386H34.1319L18.6984 3.67682L3.25952 12.386H15.2782V10.8945Z"
              fill="currentColor"/>
    </symbol>
    <symbol id="percent-up-icon" viewBox="0 0 30 30">
        <path fill-rule="evenodd" clip-rule="evenodd"
              d="M6.75835 29.3108L5.19305 27.8867L22.2035 12.1146L23.7794 13.5366L6.75835 29.3108Z"
              fill="currentColor"/>
        <path fill-rule="evenodd" clip-rule="evenodd"
              d="M11.8324 7.43967H6.51244L15.2004 2.74792L23.8892 7.43967H18.3863V8.80208H29.8255L15.0966 0.848053L0.362244 8.80208H11.8324V7.43967Z"
              fill="currentColor"/>
        <path fill-rule="evenodd" clip-rule="evenodd"
              d="M9.53719 11.5988C7.25776 11.5988 5.40973 13.304 5.40973 15.4065C5.40973 17.5107 7.2577 19.2158 9.53719 19.2158C11.8166 19.2158 13.6646 17.5107 13.6646 15.4065C13.6647 13.3041 11.8166 11.5988 9.53719 11.5988ZM9.53719 17.7876C8.11293 17.7876 6.95748 16.7219 6.95748 15.406C6.95748 14.0925 8.11293 13.0271 9.53719 13.0271C10.962 13.0271 12.1168 14.0925 12.1168 15.406C12.1169 16.722 10.962 17.7876 9.53719 17.7876Z"
              fill="currentColor"/>
        <path fill-rule="evenodd" clip-rule="evenodd"
              d="M20.4569 21.6938C18.1775 21.6938 16.3293 23.3992 16.3293 25.5018C16.3293 27.6056 18.1775 29.3107 20.4569 29.3107C22.736 29.3107 24.5841 27.6056 24.5841 25.5018C24.5841 23.3992 22.736 21.6938 20.4569 21.6938ZM20.4569 27.8827C19.0325 27.8827 17.8768 26.817 17.8768 25.5011C17.8768 24.1878 19.0325 23.1223 20.4569 23.1223C21.8816 23.1223 23.0365 24.1879 23.0365 25.5011C23.0365 26.8171 21.8816 27.8827 20.4569 27.8827Z"
              fill="currentColor"/>
    </symbol>
    <symbol id="stars-up-icon" viewBox="0 0 31 30">
        <path fill-rule="evenodd" clip-rule="evenodd"
              d="M10.7125 24.3561H7.33454L6.29055 21.1435L5.24675 24.3561H1.86801L4.60146 26.3423L3.55738 29.5553L6.29046 27.5692L9.02325 29.5553L7.97926 26.3423L10.7125 24.3561ZM6.29055 26.6453L4.93649 27.6289L5.45405 26.0373L4.09952 25.0536H5.77384L6.29064 23.4618L6.80839 25.0536H8.4813L7.12724 26.0373L7.64498 27.6289L6.29055 26.6453Z"
              fill="currentColor"/>
        <path fill-rule="evenodd" clip-rule="evenodd"
              d="M28.397 24.3871H25.0185L23.975 21.1745L22.931 24.3871H19.5525L22.2857 26.3734L21.2417 29.5863L23.9749 27.6001L26.7078 29.5863L25.6633 26.3734L28.397 24.3871ZM23.9751 26.6763L22.621 27.6606L23.1381 26.0688L21.7838 25.0845H23.4578L23.9751 23.493L24.4921 25.0845H26.1657L24.8117 26.0688L25.3291 27.6606L23.9751 26.6763Z"
              fill="currentColor"/>
        <path fill-rule="evenodd" clip-rule="evenodd"
              d="M14.1112 14.0401H10.7334L9.68956 10.8275L8.64511 14.0401H5.26712L8.00029 16.0263L6.9563 19.2384L9.68956 17.2522L12.4221 19.2384L11.3781 16.0263L14.1112 14.0401ZM9.68956 16.3292L8.33495 17.3129L8.85222 15.7212L7.4977 14.7368H9.17201L9.68956 13.145L10.2067 14.7368H11.8807L10.5257 15.7212L11.0437 17.3129L9.68956 16.3292Z"
              fill="currentColor"/>
        <path fill-rule="evenodd" clip-rule="evenodd"
              d="M25.0944 14.0226H21.7158L20.6718 10.8103L19.6281 14.0226H16.2494L18.983 16.0088L17.939 19.2219L20.6718 17.2357L23.4047 19.2219L22.3607 16.0088L25.0944 14.0226ZM20.6718 16.3118L19.3178 17.296L19.8349 15.7043L18.4805 14.7199H20.1546L20.6718 13.1282L21.1894 14.7199H22.863L21.5085 15.7043L22.026 17.296L20.6718 16.3118Z"
              fill="currentColor"/>
        <path fill-rule="evenodd" clip-rule="evenodd"
              d="M10.7366 24.3921H14.1153L15.1591 27.605L16.2031 24.3921H19.5814L16.8486 22.4066L17.8923 19.1939L15.1591 21.1801L12.4266 19.1939L13.4704 22.4066L10.7366 24.3921ZM15.159 22.1028L16.5131 21.1195L15.9958 22.711L17.3499 23.6954H15.6765L15.159 25.287L14.6417 23.6954H12.9683L14.3224 22.711L13.8048 21.1195L15.159 22.1028Z"
              fill="currentColor"/>
        <path fill-rule="evenodd" clip-rule="evenodd"
              d="M11.7882 7.81434H6.39576L15.2012 2.66058L24.008 7.81434H18.4309V9.31062H30.0256L15.0958 0.57251L0.162018 9.31062H11.7882V7.81434Z"
              fill="currentColor"/>
    </symbol>
    <symbol id="info-icon" viewBox="0 0 36 33">
        <path d="M7.74251 0.784424C8.03509 0.784424 8.31569 0.889127 8.52258 1.0755C8.72947 1.26187 8.8457 1.51465 8.8457 1.77822V2.77201H26.4967V1.77822C26.4967 1.51465 26.6129 1.26187 26.8198 1.0755C27.0267 0.889127 27.3073 0.784424 27.5999 0.784424C27.8925 0.784424 28.1731 0.889127 28.3799 1.0755C28.5868 1.26187 28.7031 1.51465 28.7031 1.77822V2.77201H30.9094C32.0798 2.77201 33.2022 3.19082 34.0297 3.93631C34.8573 4.6818 35.3222 5.6929 35.3222 6.74718V28.6106C35.3222 29.6649 34.8573 30.676 34.0297 31.4215C33.2022 32.167 32.0798 32.5858 30.9094 32.5858H4.43295C3.26262 32.5858 2.14022 32.167 1.31267 31.4215C0.485116 30.676 0.0202026 29.6649 0.0202026 28.6106V6.74718C0.0202026 5.6929 0.485116 4.6818 1.31267 3.93631C2.14022 3.19082 3.26262 2.77201 4.43295 2.77201H6.63932V1.77822C6.63932 1.51465 6.75555 1.26187 6.96244 1.0755C7.16933 0.889127 7.44993 0.784424 7.74251 0.784424ZM2.22658 8.73477V28.6106C2.22658 29.1378 2.45903 29.6433 2.87281 30.0161C3.28658 30.3888 3.84778 30.5982 4.43295 30.5982H30.9094C31.4946 30.5982 32.0558 30.3888 32.4696 30.0161C32.8833 29.6433 33.1158 29.1378 33.1158 28.6106V8.73477H2.22658Z"
              fill="currentColor"/>
        <path d="M18.1803 23.3357C18.2116 23.406 18.2272 23.4802 18.2272 23.5583C18.2272 23.6365 18.2077 23.7068 18.1686 23.7693C18.1374 23.824 18.0944 23.8787 18.0397 23.9333C17.9928 23.9802 17.9381 24.0271 17.8756 24.074C17.821 24.113 17.7741 24.156 17.735 24.2029C17.7194 24.2341 17.7077 24.281 17.6999 24.3435C17.6999 24.3982 17.6842 24.4412 17.653 24.4724C17.5592 24.574 17.4421 24.6599 17.3014 24.7302C17.1686 24.8005 17.0514 24.8904 16.9499 24.9998C16.8874 25.0701 16.8405 25.1404 16.8092 25.2107C16.778 25.2732 16.7077 25.3474 16.5983 25.4333C16.5124 25.4958 16.4303 25.5818 16.3522 25.6912C16.2741 25.8005 16.1881 25.9099 16.0944 26.0193C16.0006 26.1208 15.8913 26.2107 15.7663 26.2888C15.6413 26.3748 15.4928 26.4177 15.321 26.4177C15.2819 26.4177 15.2467 26.4138 15.2155 26.406C15.1842 26.406 15.1491 26.4021 15.11 26.3943C15.11 26.3943 15.0827 26.3787 15.028 26.3474C14.9733 26.3162 14.9108 26.2537 14.8405 26.1599C14.778 26.0662 14.7194 25.9333 14.6647 25.7615C14.61 25.5896 14.5827 25.363 14.5827 25.0818C14.5827 25.0115 14.5944 24.9373 14.6178 24.8591C14.6491 24.7732 14.6803 24.6912 14.7116 24.613C14.7506 24.5349 14.7819 24.4568 14.8053 24.3787C14.8366 24.2927 14.8522 24.2146 14.8522 24.1443C14.8522 24.074 14.8366 24.0076 14.8053 23.9451C14.7741 23.8826 14.7585 23.8162 14.7585 23.7458C14.7585 23.6755 14.7897 23.6287 14.8522 23.6052C14.9147 23.574 14.946 23.5193 14.946 23.4412C14.946 23.4021 14.9421 23.3669 14.9342 23.3357C14.9342 23.3044 14.9342 23.2693 14.9342 23.2302C14.9342 23.1365 14.9499 23.074 14.9811 23.0427C15.0124 23.0037 15.028 22.9529 15.028 22.8904C15.028 22.8357 15.0163 22.7966 14.9928 22.7732C14.9772 22.7419 14.9694 22.7029 14.9694 22.656C14.9694 22.6013 14.9889 22.5505 15.028 22.5037C15.0671 22.449 15.0944 22.3748 15.11 22.281C15.1647 22.1013 15.2077 21.8904 15.2389 21.6482C15.2702 21.3982 15.3053 21.1326 15.3444 20.8513C15.3913 20.5623 15.4421 20.2576 15.4967 19.9373C15.5514 19.6091 15.6296 19.281 15.7311 18.9529C15.7624 18.8435 15.7936 18.6873 15.8249 18.4841C15.8639 18.2732 15.8874 18.0544 15.8952 17.8279C15.8561 17.8044 15.8288 17.7927 15.8131 17.7927C15.7506 17.7927 15.7038 17.8435 15.6725 17.9451C15.6491 18.0466 15.61 18.1208 15.5553 18.1677C15.5163 18.199 15.4694 18.2146 15.4147 18.2146C15.3678 18.2146 15.3249 18.2263 15.2858 18.2498C15.2389 18.2888 15.1999 18.3357 15.1686 18.3904C15.1452 18.4373 15.1178 18.4841 15.0866 18.531C15.0631 18.5779 15.028 18.6248 14.9811 18.6716C14.9342 18.7185 14.8639 18.7537 14.7702 18.7771C14.7546 18.7849 14.7467 18.8044 14.7467 18.8357C14.7467 18.8591 14.7311 18.8708 14.6999 18.8708H14.6764C14.6764 18.8474 14.6569 18.8279 14.6178 18.8123C14.5866 18.7888 14.5475 18.7654 14.5006 18.7419C14.4538 18.7185 14.4108 18.6912 14.3717 18.6599C14.3405 18.6287 14.3249 18.5896 14.3249 18.5427C14.3249 18.4724 14.3405 18.4177 14.3717 18.3787C14.403 18.3396 14.446 18.3083 14.5006 18.2849C14.5553 18.2615 14.61 18.238 14.6647 18.2146C14.7272 18.1833 14.7897 18.1404 14.8522 18.0857C14.9303 18.0076 15.0163 17.9177 15.11 17.8162C15.2116 17.7146 15.3131 17.613 15.4147 17.5115C15.5163 17.4021 15.6217 17.3005 15.7311 17.2068C15.8483 17.1052 15.9655 17.0154 16.0827 16.9373C16.1061 16.9216 16.11 16.906 16.0944 16.8904C16.0866 16.8748 16.11 16.863 16.1647 16.8552C16.1881 16.8552 16.2194 16.8435 16.2585 16.8201C16.3053 16.7888 16.3483 16.7576 16.3874 16.7263C16.4342 16.6873 16.4733 16.656 16.5046 16.6326C16.5358 16.6013 16.5553 16.5857 16.5631 16.5857C16.5788 16.5857 16.5944 16.5896 16.61 16.5974C16.6335 16.5974 16.653 16.5974 16.6686 16.5974C16.7311 16.5974 16.8014 16.5818 16.8796 16.5505C16.9655 16.5115 17.1178 16.4919 17.3366 16.4919C17.4225 16.4919 17.4967 16.5193 17.5592 16.574C17.6296 16.6208 17.6647 16.7224 17.6647 16.8787C17.6647 16.9255 17.6452 16.9998 17.6061 17.1013C17.5671 17.2029 17.5241 17.324 17.4772 17.4646C17.4303 17.6052 17.3874 17.7615 17.3483 17.9333C17.3092 18.1052 17.2897 18.2849 17.2897 18.4724C17.2897 18.5505 17.2936 18.6326 17.3014 18.7185C17.3092 18.7966 17.3131 18.8748 17.3131 18.9529C17.3131 19.0935 17.2858 19.2146 17.2311 19.3162C17.1842 19.4099 17.1491 19.5232 17.1256 19.656C17.0944 19.8201 17.0788 19.9919 17.0788 20.1716C17.0788 20.3513 17.0671 20.531 17.0436 20.7107C16.9811 21.0857 16.9069 21.449 16.821 21.8005C16.735 22.1521 16.6608 22.5154 16.5983 22.8904C16.5749 23.0154 16.5358 23.1755 16.4811 23.3708C16.4342 23.5662 16.4108 23.7732 16.4108 23.9919C16.4108 24.1951 16.446 24.3826 16.5163 24.5544C16.6335 24.5466 16.7311 24.5115 16.8092 24.449C16.8874 24.3865 16.9577 24.3162 17.0202 24.238C17.0827 24.1599 17.1413 24.0779 17.196 23.9919C17.2585 23.906 17.3249 23.8318 17.3952 23.7693C17.4421 23.7302 17.5085 23.7029 17.5944 23.6873C17.6881 23.6638 17.7663 23.6326 17.8288 23.5935C17.8913 23.5544 17.9342 23.4998 17.9577 23.4294C17.9811 23.3591 18.0319 23.324 18.11 23.324C18.1256 23.324 18.1374 23.3279 18.1452 23.3357C18.153 23.3357 18.1647 23.3357 18.1803 23.3357ZM18.6139 11.5232C18.6374 11.5701 18.6491 11.6208 18.6491 11.6755C18.6491 11.7693 18.6178 11.8708 18.5553 11.9802C18.4928 12.0896 18.4225 12.1951 18.3444 12.2966C18.2741 12.3982 18.2038 12.4919 18.1335 12.5779C18.0631 12.656 18.0202 12.7107 18.0046 12.7419C17.9577 12.8435 17.9186 12.9802 17.8874 13.1521C17.8639 13.324 17.8131 13.4802 17.735 13.6208C17.7038 13.6833 17.6764 13.7302 17.653 13.7615C17.6296 13.7927 17.6022 13.863 17.571 13.9724C17.5397 14.0427 17.5006 14.1248 17.4538 14.2185C17.4069 14.3123 17.3561 14.4021 17.3014 14.488C17.2467 14.5662 17.1921 14.6365 17.1374 14.699C17.0827 14.7537 17.0319 14.781 16.985 14.781C16.7819 14.781 16.6413 14.6833 16.5631 14.488C16.4928 14.2849 16.4577 14.0466 16.4577 13.7732C16.4577 13.6638 16.4616 13.5505 16.4694 13.4333C16.485 13.3162 16.5006 13.2029 16.5163 13.0935C16.5319 12.9763 16.571 12.8904 16.6335 12.8357C16.696 12.781 16.7467 12.6951 16.7858 12.5779C16.8249 12.4763 16.8522 12.3787 16.8678 12.2849C16.8835 12.1833 16.8991 12.0896 16.9147 12.0037C16.9381 11.9177 16.9616 11.8435 16.985 11.781C17.0163 11.7107 17.0631 11.6521 17.1256 11.6052C17.1725 11.574 17.2272 11.5466 17.2897 11.5232C17.36 11.4998 17.4303 11.4841 17.5006 11.4763C17.5788 11.4607 17.653 11.449 17.7233 11.4412C17.8014 11.4333 17.8639 11.4294 17.9108 11.4294C17.9108 11.4373 17.946 11.4255 18.0163 11.3943C18.0866 11.3552 18.1647 11.3357 18.2506 11.3357C18.2663 11.3357 18.3171 11.3513 18.403 11.3826C18.4967 11.406 18.5671 11.4529 18.6139 11.5232Z"
              fill="currentColor"/>
    </symbol>
    <symbol id="camera-icon" viewBox="0 0 82 62">
        <path d="M76.5219 51.2983C76.5219 52.6441 75.9873 53.9348 75.0356 54.8865C74.0839 55.8382 72.7932 56.3728 71.4473 56.3728H10.5526C9.20671 56.3728 7.91598 55.8382 6.96431 54.8865C6.01265 53.9348 5.47801 52.6441 5.47801 51.2983V20.8509C5.47801 19.505 6.01265 18.2143 6.96431 17.2626C7.91598 16.3109 9.20671 15.7763 10.5526 15.7763H16.5C20.5354 15.7741 24.405 14.1697 27.258 11.3158L31.4699 7.11402C32.4189 6.16477 33.7053 5.63015 35.0475 5.62718H46.9423C48.288 5.62746 49.5786 6.16229 50.53 7.11402L54.7317 11.3158C56.1457 12.7301 57.8244 13.852 59.6721 14.6174C61.5197 15.3827 63.5001 15.7765 65.5 15.7763H71.4473C72.7932 15.7763 74.0839 16.3109 75.0356 17.2626C75.9873 18.2143 76.5219 19.505 76.5219 20.8509V51.2983ZM10.5526 10.7017C7.86086 10.7017 5.27938 11.771 3.37605 13.6744C1.47272 15.5777 0.403442 18.1592 0.403442 20.8509L0.403442 51.2983C0.403442 53.99 1.47272 56.5714 3.37605 58.4748C5.27938 60.3781 7.86086 61.4474 10.5526 61.4474H71.4473C74.1391 61.4474 76.7205 60.3781 78.6239 58.4748C80.5272 56.5714 81.5965 53.99 81.5965 51.2983V20.8509C81.5965 18.1592 80.5272 15.5777 78.6239 13.6744C76.7205 11.771 74.1391 10.7017 71.4473 10.7017H65.5C62.8085 10.7012 60.2274 9.63151 58.3245 7.72805L54.1228 3.52631C52.2199 1.62284 49.6388 0.553187 46.9474 0.552612H35.0526C32.3611 0.553187 29.78 1.62284 27.8771 3.52631L23.6754 7.72805C21.7725 9.63151 19.1915 10.7012 16.5 10.7017H10.5526Z"
              fill="currentColor"/>
        <path d="M42.3579 46.733C39.1058 46.733 35.9869 45.4412 33.6874 43.1416C31.3878 40.842 30.0959 37.7231 30.0959 34.471C30.0959 31.2189 31.3878 28.1 33.6874 25.8005C35.9869 23.5009 39.1058 22.209 42.3579 22.209C45.61 22.209 48.7289 23.5009 51.0285 25.8005C53.3281 28.1 54.6199 31.2189 54.6199 34.471C54.6199 37.7231 53.3281 40.842 51.0285 43.1416C48.7289 45.4412 45.61 46.733 42.3579 46.733ZM42.3579 51.6379C46.9109 51.6379 51.2773 49.8292 54.4967 46.6098C57.7161 43.3904 59.5248 39.024 59.5248 34.471C59.5248 29.9181 57.7161 25.5517 54.4967 22.3322C51.2773 19.1128 46.9109 17.3042 42.3579 17.3042C37.805 17.3042 33.4386 19.1128 30.2191 22.3322C26.9997 25.5517 25.1911 29.9181 25.1911 34.471C25.1911 39.024 26.9997 43.3904 30.2191 46.6098C33.4386 49.8292 37.805 51.6379 42.3579 51.6379ZM17.8339 24.6614C17.8339 25.3118 17.5755 25.9356 17.1156 26.3955C16.6557 26.8554 16.0319 27.1138 15.3815 27.1138C14.7311 27.1138 14.1073 26.8554 13.6474 26.3955C13.1875 25.9356 12.9291 25.3118 12.9291 24.6614C12.9291 24.011 13.1875 23.3872 13.6474 22.9273C14.1073 22.4674 14.7311 22.209 15.3815 22.209C16.0319 22.209 16.6557 22.4674 17.1156 22.9273C17.5755 23.3872 17.8339 24.011 17.8339 24.6614Z"
              fill="currentColor"/>
    </symbol>
    <symbol id="mail-icon" viewBox="0 0 17 16">
        <path d="M16.509 13.2752C16.509 14.2433 15.5658 15.0338 14.4108 15.0338H2.60731C1.45222 15.0338 0.509033 14.2433 0.509033 13.2752V5.31943C0.509033 5.18859 0.589038 5.07333 0.710341 5.00627L3.21231 3.37924V1.02984C3.21231 0.822877 3.41254 0.654881 3.65969 0.654881H7.4013L8.23637 0.11175C8.40308 0.00392127 8.63207 0.0102642 8.78905 0.116643L9.61677 0.654881H13.3584C13.6055 0.654881 13.806 0.822877 13.806 1.02984V3.37924L16.3281 5.0195C16.4414 5.09018 16.5077 5.20182 16.5077 5.31943L16.509 13.2752ZM6.42481 3.29007C5.83646 3.29007 5.83646 2.54016 6.42481 2.54016H10.5933C11.1816 2.54016 11.1816 3.29007 10.5933 3.29007H6.42481ZM6.42481 6.85277C5.83646 6.85277 5.83646 6.10287 6.42481 6.10287H10.5933C11.1816 6.10287 11.1816 6.85277 10.5933 6.85277H6.42481ZM6.42481 5.07151C5.83646 5.07151 5.83646 4.32142 6.42481 4.32142H10.5933C11.1816 4.32142 11.1816 5.07151 10.5933 5.07151H6.42481ZM3.21231 4.32559L1.68402 5.31943L3.21231 6.31327V4.32559ZM4.10707 6.89536L8.50903 9.75817L12.911 6.89536V1.40497H4.10707V6.89536ZM13.806 6.31327L15.3341 5.31943L13.806 4.32559V6.31327ZM1.40378 6.08366V13.2752C1.40378 13.8292 1.9463 14.2839 2.60731 14.2839L7.93798 10.3332C5.75991 8.91675 3.58185 7.50011 1.40378 6.08366ZM9.08009 10.3332L14.4108 14.2839C15.0718 14.2839 15.6143 13.8292 15.6143 13.2752V6.08366C13.4362 7.50011 11.2582 8.91675 9.08009 10.3332ZM12.911 14.2839L8.50903 11.0304L4.10707 14.2839H12.911Z"
              fill="currentColor"/>
    </symbol>
    <symbol id="rating-arrow-icon" viewBox="0 0 15 11">
        <path d="M1.295 1.701h12.408L7.5 8.791l-6.204-7.09Zm-.974.853 6.204 7.089a1.294 1.294 0 0 0 1.948 0l6.204-7.09c.733-.836.138-2.146-.974-2.146H1.295A1.294 1.294 0 0 0 .32 2.554Z"
              fill="currentColor"/>
    </symbol>
    <symbol id="collapse-arrow-icon" viewBox="0 0 32 11">
        <path d="M19.763.639v2.595h3.855l-7.346 4.42-7.274-4.42h3.855V.639H.563l15.708 10.194L32 .64H19.763Z"
              fill="currentColor"/>
    </symbol>
    <symbol id="cross-icon" viewBox="0 0 39 38">
        <path d="M1.26904 1.07532L36.8151 36.6214" stroke="currentColor" stroke-linecap="round"/>
        <path d="M38 1.07532L2.45391 36.6214" stroke="currentColor" stroke-linecap="round"/>
    </symbol>
    <symbol id="cross-icon-2" viewBox="0 0 22 22">
        <rect x="0.382812" width="21" height="22" rx="10.5" fill="white"/>
        <path d="M5.79313 5.55298L16.3997 16.1596" stroke="#6699CC" stroke-width="2" stroke-linecap="round"/>
        <path d="M5.36589 16.447L15.9725 5.84042" stroke="#6699CC" stroke-width="2" stroke-linecap="round"/>
    </symbol>
    <symbol id="cross-icon-3" viewBox="0 0 20 20">
        <path d="M2.245 2.17578L18.5085 18.4392" stroke="#6699CC" stroke-width="3" stroke-linecap="round"/>
        <path d="M18.5084 2.17578L2.24497 18.4392" stroke="#6699CC" stroke-width="3" stroke-linecap="round"/>
    </symbol>
    <symbol id="suitcase-icon" viewBox="0 0 34 27">
        <path d="M28.9058 3.71691H22.1338V2.83378C22.1338 1.27121 21.0074 0 19.6228 0H11.5009C10.1163 0 8.98988 1.27121 8.98988 2.83378V3.71691H2.21786C0.994924 3.71691 0 4.83966 0 6.21982V23.5871C0 24.9672 0.994924 26.09 2.21786 26.09H28.9058C30.1287 26.09 31.1237 24.9672 31.1237 23.5871V6.21982C31.1237 4.83966 30.1287 3.71691 28.9058 3.71691ZM10.2299 2.83371C10.2299 2.04279 10.8 1.39936 11.5009 1.39936H19.6228C20.3236 1.39936 20.8938 2.04279 20.8938 2.83371V3.71684H10.2299V2.83371ZM29.8837 23.5871C29.8837 24.1956 29.445 24.6907 28.9059 24.6907H2.21786C1.67867 24.6907 1.24002 24.1956 1.24002 23.5871V16.5846L2.29896 17.7706C2.41506 17.9006 2.57208 17.9736 2.73566 17.9736H12.4619V20.3611C12.4619 20.7476 12.7394 21.0608 13.0818 21.0608H18.0418C18.3842 21.0608 18.6618 20.7476 18.6618 20.3611V17.9736H23.7457C24.0881 17.9736 24.3657 17.6604 24.3657 17.2739C24.3657 16.8875 24.0881 16.5743 23.7457 16.5743H2.99103L1.23996 14.6132V6.21982C1.23996 5.61131 1.67867 5.11627 2.2178 5.11627H28.9057C29.4449 5.11627 29.8836 5.61131 29.8836 6.21982V14.5451L27.9446 16.7849C27.7052 17.0613 27.7098 17.5042 27.9547 17.7743C28.0753 17.9073 28.2317 17.9736 28.3879 17.9736C28.549 17.9736 28.7099 17.9032 28.8314 17.7628L29.8836 16.5476L29.8837 23.5871ZM13.7018 19.6614V17.9736H17.4218V19.6614H13.7018Z"
              fill="currentColor"/>
        <path d="M26.2556 13.1342C29.9135 13.1342 32.8639 16.0626 32.864 19.6566C32.864 23.2507 29.9135 26.179 26.2556 26.1791C22.5977 26.1791 19.6472 23.2507 19.6472 19.6566C19.6473 16.0626 22.5977 13.1342 26.2556 13.1342Z"
              fill="white" stroke="currentColor" stroke-width="1.5"/>
        <path d="M26.3269 14.5736C26.7211 14.5738 27.0407 14.8933 27.0408 15.2875V19.0052H30.4021C30.7615 19.0055 31.0524 19.2972 31.0525 19.6566C31.0525 20.0161 30.7616 20.3078 30.4021 20.308H27.0408V24.0258C27.0408 24.42 26.7211 24.7404 26.3269 24.7406C25.9326 24.7406 25.613 24.4201 25.613 24.0258V20.308H22.1091C21.7496 20.3078 21.4578 20.0162 21.4578 19.6566C21.4579 19.2972 21.7497 19.0054 22.1091 19.0052H25.613V15.2875C25.6131 14.8932 25.9326 14.5736 26.3269 14.5736Z"
              fill="currentColor"/>
    </symbol>
</svg>